<svg width="169" height="44" viewBox="0 0 169 44" fill="none" xmlns="http://www.w3.org/2000/svg">
<mask id="path-1-outside-1_0_55" maskUnits="userSpaceOnUse" x="0" y="0" width="169" height="44" fill="black">
<rect fill="white" width="169" height="44"/>
<path d="M2 5.76855C3.41907 6.02348 4.64753 6.21468 5.68536 6.34214C6.72319 6.43774 7.58099 6.5174 8.25876 6.58113C9.04242 6.64486 9.69901 6.6608 10.2285 6.62893C10.7792 6.59706 11.5311 6.5174 12.4842 6.38994C13.2891 6.29434 14.3481 6.16688 15.6612 6.00755C16.9744 5.81635 18.6159 5.56143 20.5856 5.24277C20.6068 5.97568 20.6174 6.69266 20.6174 7.39371C20.6386 8.06289 20.6598 8.65241 20.681 9.16226C20.7021 9.76771 20.7127 10.3254 20.7127 10.8352C20.7127 11.3769 20.6915 12.0621 20.6492 12.8906C20.6068 13.5916 20.5327 14.4839 20.4268 15.5673C20.3421 16.6189 20.2044 17.8776 20.0138 19.3434C19.7173 17.6226 19.4313 16.2365 19.156 15.1849C18.8806 14.1015 18.6265 13.2411 18.3935 12.6038C18.1393 11.8709 17.8852 11.3132 17.631 10.9308C17.3557 10.644 17.0274 10.405 16.6461 10.2138C16.3072 10.0545 15.873 9.92704 15.3435 9.83145C14.8352 9.73585 14.2316 9.75178 13.5326 9.87925C13.4267 14.0855 13.3526 17.4952 13.3102 20.1082C13.2679 22.7212 13.2361 24.7606 13.2149 26.2264C13.1937 27.979 13.1832 29.2377 13.1832 30.0025C13.2043 31.086 13.3208 32.1535 13.5326 33.205C13.7021 34.0973 13.9774 35.0214 14.3587 35.9774C14.7399 36.9333 15.2906 37.7778 16.0107 38.5107H12.1347C11.7747 38.5107 11.3299 38.5426 10.8004 38.6063C10.3556 38.67 9.78373 38.7338 9.08478 38.7975C8.40702 38.8612 7.61276 38.9727 6.70201 39.1321C7.01971 38.3036 7.27388 37.5547 7.4645 36.8855C7.65512 36.2164 7.80338 35.6428 7.90928 35.1648C8.03636 34.5912 8.13167 34.0813 8.19522 33.6352C8.2164 32.9979 8.26935 31.7073 8.35407 29.7635C8.37525 28.9669 8.39643 27.979 8.41761 26.8C8.45997 25.621 8.50233 24.2189 8.54469 22.5937C8.60823 20.9686 8.66118 19.1044 8.70354 17.0013C8.76708 14.8662 8.83062 12.4604 8.89416 9.78365C8.51292 9.62432 8.15285 9.64025 7.81397 9.83145C7.47509 9.99078 7.17856 10.1979 6.9244 10.4528C6.62788 10.7715 6.34195 11.1539 6.0666 11.6C5.79126 12.1417 5.48415 12.8428 5.14526 13.7031C4.84874 14.4361 4.50986 15.408 4.12861 16.6189C3.74737 17.7979 3.31317 19.2637 2.82603 21.0164C2.72013 19.1681 2.646 17.6545 2.60364 16.4755C2.56128 15.2646 2.52951 14.3245 2.50833 13.6553C2.48715 12.8587 2.47656 12.2692 2.47656 11.8868C2.47656 11.5363 2.45537 11.0742 2.41301 10.5006C2.37065 10.0226 2.3177 9.40126 2.25416 8.63648C2.19062 7.83983 2.1059 6.88386 2 5.76855Z"/>
<path d="M19.2831 17.766C19.6855 17.7979 20.0455 17.8138 20.3633 17.8138C20.7021 17.782 20.9881 17.7501 21.2211 17.7182C21.4964 17.6864 21.74 17.6545 21.9518 17.6226C22.2695 17.5589 22.5978 17.4792 22.9366 17.3836C23.2332 17.3199 23.5403 17.2403 23.858 17.1447C24.1969 17.0172 24.5252 16.8738 24.8429 16.7145C24.7158 17.1925 24.6099 17.6067 24.5252 17.9572C24.4404 18.3078 24.3769 18.6105 24.3345 18.8654C24.271 19.1522 24.2392 19.3912 24.2392 19.5824C24.2181 19.8055 24.2075 20.0763 24.2075 20.395C24.1863 20.9367 24.1863 21.813 24.2075 23.0239C25.3088 21.5899 26.2302 20.4746 26.9715 19.678C27.734 18.8813 28.3376 18.26 28.7824 17.8138C29.3119 17.304 29.7249 16.9694 30.0214 16.8101C30.8051 16.6189 31.4935 16.8897 32.0865 17.6226C32.3407 17.9413 32.5842 18.3715 32.8172 18.9132C33.0502 19.4231 33.2514 20.1082 33.4209 20.9686C33.5903 21.8289 33.7174 22.8646 33.8021 24.0755C33.8868 25.2545 33.8974 26.6725 33.8339 28.3296C33.3891 28.3933 32.9867 28.457 32.6266 28.5208C32.2877 28.5845 32.0018 28.6323 31.7688 28.6642C31.4935 28.7279 31.2393 28.7597 31.0063 28.7597L30.1485 28.9031C29.852 28.9669 29.4813 29.0306 29.0366 29.0943C28.6129 29.1262 28.094 29.1899 27.4798 29.2855C28.3694 28.2021 28.9412 27.2621 29.1954 26.4654C29.4707 25.6369 29.5872 24.9518 29.5449 24.4101C29.5025 23.8046 29.3119 23.2788 28.973 22.8327C28.5706 22.4822 28.1364 22.3547 27.6704 22.4503C27.268 22.514 26.802 22.7849 26.2725 23.2629C25.743 23.7409 25.1818 24.6331 24.5887 25.9396C24.6311 27.979 24.6734 29.6679 24.7158 31.0063C24.7793 32.3447 24.8323 33.4281 24.8746 34.2566C24.9382 35.2126 24.9911 35.9614 25.0335 36.5031C25.097 36.9811 25.2241 37.491 25.4147 38.0327C25.563 38.4788 25.7748 38.9727 26.0501 39.5145C26.3255 40.0562 26.6855 40.5979 27.1303 41.1396C26.1984 41.0759 25.4359 41.0759 24.8429 41.1396C24.4828 41.1715 24.1651 41.2034 23.8898 41.2352C23.5932 41.299 23.2755 41.3627 22.9366 41.4264C22.6401 41.4901 22.2907 41.5539 21.8882 41.6176C21.507 41.7132 21.0834 41.8088 20.6174 41.9044C20.7869 41.5539 20.9245 41.1396 21.0304 40.6616C21.1363 40.2155 21.2211 39.7853 21.2846 39.3711C21.3693 38.8931 21.4329 38.3992 21.4752 37.8893C21.4964 37.4432 21.507 36.774 21.507 35.8818C21.5282 34.9895 21.5176 33.9857 21.4752 32.8704C21.454 31.7233 21.4223 30.5442 21.3799 29.3333C21.3375 28.0906 21.2846 26.9275 21.2211 25.844C21.1575 24.7606 21.0834 23.8205 20.9987 23.0239C20.9351 22.1954 20.861 21.6218 20.7763 21.3031C20.6704 20.9208 20.5433 20.5384 20.395 20.156C20.2679 19.8055 20.1091 19.439 19.9185 19.0566C19.7278 18.6423 19.516 18.2122 19.2831 17.766Z"/>
<path d="M37.551 21.3031C37.6569 21.1119 37.7204 20.7614 37.7416 20.2516C37.784 19.7099 37.8687 19.1044 37.9958 18.4352C38.144 17.766 38.3876 17.065 38.7265 16.3321C39.0654 15.5992 39.6161 14.914 40.3786 14.2767C41.1199 13.6394 41.84 13.257 42.5389 13.1296C43.2379 13.0021 43.9051 13.0499 44.5405 13.273C45.1759 13.496 45.7689 13.8465 46.3196 14.3245C46.8915 14.8025 47.4104 15.3283 47.8764 15.9019C48.1941 16.2843 48.4482 16.8419 48.6388 17.5748C48.8295 18.2759 48.9777 19.0725 49.0836 19.9648C49.1895 20.857 49.2637 21.7971 49.306 22.7849C49.3696 23.7409 49.4119 24.6809 49.4331 25.605C49.4543 26.4973 49.4649 27.3258 49.4649 28.0906C49.4861 28.8235 49.5284 29.4289 49.592 29.9069C49.6767 30.608 49.8249 31.2134 50.0367 31.7233C50.2485 32.2013 50.4815 32.6155 50.7357 32.966C50.9899 33.2847 51.244 33.5396 51.4982 33.7308C51.7523 33.922 51.9747 34.0654 52.1654 34.161C52.2924 34.2566 52.4089 34.3203 52.5148 34.3522C52.7266 34.4797 52.8749 34.4797 52.9596 34.3522C52.8325 34.7983 52.716 35.1807 52.6101 35.4994C52.5042 35.818 52.4195 36.0889 52.356 36.3119C52.2713 36.5669 52.1971 36.774 52.1336 36.9333C52.07 37.1245 51.9959 37.2998 51.9112 37.4591C51.8477 37.6184 51.7629 37.7937 51.657 37.9849C51.5511 38.1761 51.4452 38.3832 51.3393 38.6063C51.064 38.447 50.7992 38.2558 50.5451 38.0327C50.3121 37.8096 50.1003 37.6025 49.9097 37.4113C49.6767 37.1883 49.4649 36.9652 49.2743 36.7421C49.0836 36.5191 48.9036 36.2642 48.7342 35.9774C48.5859 35.7224 48.427 35.4516 48.2576 35.1648C48.1093 34.878 47.9823 34.5593 47.8764 34.2088C47.7493 34.6231 47.4422 35.2126 46.955 35.9774C46.4891 36.7421 45.8748 37.4432 45.1123 38.0805C44.3499 38.686 43.4603 39.1161 42.4436 39.3711C41.4482 39.626 40.3468 39.4507 39.1395 38.8453C38.61 38.5904 38.1123 38.2239 37.6463 37.7459C37.1803 37.2361 36.7779 36.6306 36.439 35.9296C36.1213 35.2285 35.8884 34.4319 35.7401 33.5396C35.613 32.6155 35.6236 31.5958 35.7719 30.4805C35.9201 29.3652 36.1849 28.4252 36.5661 27.6604C36.9474 26.8956 37.4027 26.2742 37.9322 25.7962C38.4618 25.3182 39.0548 24.9518 39.7114 24.6969C40.368 24.4419 41.0457 24.2667 41.7447 24.1711C42.2954 24.1392 42.8461 24.187 43.3967 24.3145C43.8627 24.4419 44.3499 24.6809 44.8582 25.0314C45.3665 25.3501 45.8007 25.844 46.1608 26.5132C46.1396 24.8243 46.0972 23.486 46.0337 22.4981C45.9913 21.4784 45.949 20.6977 45.9066 20.156C45.8219 19.5187 45.7477 19.0725 45.6842 18.8176C45.5783 18.5945 45.4618 18.3396 45.3347 18.0528C45.2288 17.766 45.0912 17.5111 44.9217 17.2881C44.7523 17.0331 44.5405 16.826 44.2863 16.6667C44.0322 16.5073 43.7356 16.4436 43.3967 16.4755C43.0367 16.5073 42.7507 16.6507 42.5389 16.9057C42.3271 17.1606 42.1577 17.4633 42.0306 17.8138C41.9247 18.1325 41.8612 18.483 41.84 18.8654C41.8188 19.2478 41.8294 19.5824 41.8718 19.8692C41.9141 20.0604 41.9777 20.2675 42.0624 20.4906C42.1471 20.6818 42.2636 20.8889 42.4119 21.1119C42.5601 21.335 42.7613 21.5262 43.0155 21.6855C42.5284 21.7811 42.0942 21.8608 41.7129 21.9245C41.3317 21.9564 41.0034 22.0042 40.728 22.0679C40.4103 22.1317 40.135 22.1795 39.902 22.2113C39.669 22.2432 39.3937 22.3069 39.076 22.4025C38.8006 22.4662 38.4618 22.5459 38.0593 22.6415C37.6569 22.7371 37.1909 22.8646 36.6614 23.0239C36.7885 22.8008 36.905 22.5937 37.0109 22.4025C37.1168 22.1795 37.2121 21.9883 37.2968 21.8289C37.3816 21.6377 37.4663 21.4625 37.551 21.3031ZM42.3166 26.9912C41.9353 27.0231 41.5541 27.1665 41.1728 27.4214C40.7916 27.6444 40.4527 27.979 40.1562 28.4252C39.8596 28.8394 39.6055 29.3333 39.3937 29.9069C39.2031 30.4486 39.1077 31.0541 39.1077 31.7233C39.1077 32.3925 39.2137 32.982 39.4255 33.4918C39.6584 33.9698 39.955 34.3681 40.315 34.6868C40.6963 35.0055 41.0987 35.1966 41.5223 35.2604C41.9671 35.3241 42.4013 35.2604 42.8249 35.0692C43.2273 34.8461 43.6085 34.4956 43.9686 34.0176C44.3287 33.5078 44.6358 32.966 44.89 32.3925C45.1441 31.787 45.3241 31.1975 45.43 30.6239C45.5359 30.0184 45.5465 29.5245 45.4618 29.1421C45.2924 28.3136 44.9111 27.74 44.3181 27.4214C43.725 27.0709 43.0579 26.9275 42.3166 26.9912Z"/>
<path d="M50.5451 14.3245C50.9051 14.4201 51.2758 14.4998 51.657 14.5635C52.0171 14.5954 52.3454 14.6273 52.6419 14.6591C52.9808 14.691 53.3091 14.7069 53.6268 14.7069C53.9445 14.7069 54.3046 14.691 54.707 14.6591C55.0459 14.6273 55.4483 14.5795 55.9143 14.5157C56.4014 14.452 56.9309 14.3564 57.5028 14.2289C57.1639 14.5157 56.8991 14.8184 56.7085 15.1371C56.5179 15.4558 56.3696 15.7426 56.2637 15.9975C56.1366 16.3161 56.0519 16.6029 56.0096 16.8579C55.9672 17.1128 55.9778 17.6386 56.0413 18.4352C56.1049 19.2319 56.1896 20.156 56.2955 21.2075C56.4226 22.2591 56.5603 23.3585 56.7085 24.5057C56.8568 25.6528 57.005 26.7044 57.1533 27.6604C57.3227 28.6164 57.471 29.413 57.5981 30.0503C57.7463 30.6876 57.8628 30.9904 57.9476 30.9585C58.0323 30.9585 58.1594 30.6398 58.3288 30.0025C58.5194 29.3652 58.7312 28.5845 58.9642 27.6604C59.1972 26.7044 59.4408 25.6688 59.6949 24.5535C59.9491 23.4063 60.1715 22.3388 60.3621 21.3509C60.5527 20.3631 60.701 19.5346 60.8069 18.8654C60.934 18.1644 60.9869 17.7501 60.9657 17.6226C60.9022 17.4952 60.8281 17.3199 60.7433 17.0969C60.5951 16.7463 60.2668 16.1409 59.7585 15.2805C60.3727 15.3442 60.9022 15.408 61.347 15.4717C61.7918 15.5036 62.1518 15.5514 62.4272 15.6151C62.7449 15.6788 62.999 15.7266 63.1897 15.7585C63.3803 15.7904 63.6556 15.7904 64.0157 15.7585C64.3122 15.7585 64.704 15.7426 65.1912 15.7107C65.6995 15.647 66.3243 15.5514 67.0656 15.4239C66.515 15.9019 66.0596 16.3321 65.6995 16.7145C65.3606 17.065 65.0959 17.3677 64.9053 17.6226C64.6723 17.9413 64.5028 18.2122 64.3969 18.4352C64.2487 18.8495 63.9839 19.8373 63.6027 21.3987C63.4332 22.0679 63.2214 22.8964 62.9673 23.8843C62.7343 24.8721 62.4484 26.0671 62.1095 27.4692C61.7918 28.8394 61.4105 30.4486 60.9657 32.2969C60.521 34.1451 60.0232 36.2642 59.4725 38.6541L56.3908 39.1321C55.9884 37.1245 55.6601 35.4516 55.4059 34.1132C55.1729 32.743 54.9823 31.6436 54.8341 30.8151C54.6646 29.8591 54.5375 29.1103 54.4528 28.5686C54.3469 27.9631 54.2198 27.0868 54.0716 25.9396C53.9233 24.7606 53.7751 23.5656 53.6268 22.3547C53.4785 21.1438 53.3303 20.0604 53.182 19.1044C53.0337 18.1166 52.9173 17.5111 52.8325 17.2881C52.7478 17.1287 52.5996 16.9057 52.3877 16.6189C52.2183 16.3639 51.9853 16.0612 51.6888 15.7107C51.3923 15.3283 51.011 14.8662 50.5451 14.3245Z"/>
<path d="M73.7056 32.966C74.2987 32.966 74.8494 32.8704 75.3577 32.6792C75.7813 32.5199 76.1837 32.265 76.565 31.9145C76.9674 31.5321 77.2322 30.9744 77.3592 30.2415C77.7828 30.369 78.1429 30.4805 78.4394 30.5761C78.7359 30.6398 78.9901 30.7036 79.2019 30.7673C79.4349 30.8629 79.6361 30.9266 79.8055 30.9585C79.975 31.0222 80.1762 31.086 80.4092 31.1497C80.621 31.2134 80.8751 31.2931 81.1717 31.3887C81.4894 31.4524 81.86 31.548 82.2836 31.6755C81.9659 31.6117 81.6376 31.6595 81.2988 31.8189C80.981 31.9782 80.6739 32.1535 80.3774 32.3447C80.0385 32.5677 79.7208 32.8386 79.4243 33.1572C79.2337 33.3484 79.0113 33.6352 78.7571 34.0176C78.5241 34.4 78.1853 34.7665 77.7405 35.117C77.2957 35.4675 76.7026 35.7702 75.9613 36.0252C75.2412 36.2482 74.3093 36.3279 73.1655 36.2642C71.7888 36.2004 70.6345 35.834 69.7026 35.1648C68.7707 34.4637 68.0188 33.6193 67.4469 32.6314C66.875 31.6117 66.462 30.5124 66.2078 29.3333C65.9537 28.1543 65.816 27.0549 65.7948 26.0352C65.7736 25.0155 65.9749 23.948 66.3985 22.8327C66.8221 21.7174 67.4151 20.6977 68.1776 19.7736C68.9613 18.8495 69.9038 18.1006 71.0052 17.527C72.1065 16.9216 73.3138 16.6189 74.627 16.6189C75.3895 16.6189 76.0884 16.7623 76.7238 17.0491C77.3804 17.304 77.9735 17.6545 78.503 18.1006C79.0536 18.5468 79.5302 19.0566 79.9326 19.6302C80.3351 20.1719 80.6739 20.7296 80.9493 21.3031C81.2246 21.9086 81.4576 22.5459 81.6482 23.2151C81.8177 23.7887 81.9553 24.4419 82.0612 25.1748C82.1671 25.9078 82.1989 26.6566 82.1566 27.4214C80.5469 27.4851 79.2443 27.5329 78.2488 27.5648C77.2745 27.5966 76.512 27.6126 75.9613 27.6126H74.5317H73.4515C73.0702 27.6126 72.5725 27.6285 71.9583 27.6604C71.344 27.6922 70.5922 27.74 69.7026 27.8038C69.8085 29.0784 70.0732 30.0662 70.4968 30.7673C70.9416 31.4365 71.4076 31.9463 71.8947 32.2969C72.4454 32.6792 73.0491 32.9023 73.7056 32.966ZM70.8463 24.3623C71.5241 24.426 72.0854 24.4738 72.5301 24.5057C72.9961 24.5375 73.3773 24.5694 73.6739 24.6013C73.9916 24.6331 74.2457 24.6491 74.4364 24.6491H75.2306C75.7601 24.6491 76.745 24.6013 78.1853 24.5057C78.1217 23.1036 77.9205 22.0361 77.5816 21.3031C77.2639 20.5702 76.925 20.0285 76.565 19.678C76.1414 19.2956 75.6754 19.0725 75.1671 19.0088C73.7904 19.0407 72.7631 19.4709 72.0854 20.2994C71.4288 21.1279 71.0158 22.4822 70.8463 24.3623Z"/>
<path d="M84.1581 42C84.3699 41.522 84.5393 41.0759 84.6664 40.6616C84.7935 40.2474 84.8994 39.8969 84.9841 39.6101C85.0688 39.2595 85.1324 38.9409 85.1747 38.6541C85.1959 38.4629 85.2065 37.9052 85.2065 36.9811C85.2065 36.057 85.1853 34.8939 85.143 33.4918C85.1218 32.0897 85.09 30.5124 85.0477 28.7597C85.0265 27.0071 84.9841 25.2226 84.9206 23.4063C84.8782 21.5899 84.8253 19.8214 84.7617 18.1006C84.7194 16.3799 84.677 14.8344 84.6346 13.4642C84.5923 12.0621 84.5499 10.9149 84.5076 10.0226C84.4652 9.1304 84.4334 8.62055 84.4122 8.49308C84.3699 8.30189 84.2958 8.11069 84.1899 7.9195C83.9781 7.53711 83.618 7.17065 83.1097 6.82013C84.1899 6.40587 85.0159 6.07128 85.5877 5.81635C85.9266 5.68889 86.2232 5.56143 86.4773 5.43396C86.7103 5.3065 86.9433 5.17904 87.1763 5.05157C87.3669 4.92411 87.5787 4.78071 87.8117 4.62138C88.0447 4.43019 88.2565 4.22306 88.4471 4C88.3412 4.92411 88.2565 5.81635 88.1929 6.67673C88.1294 7.53711 88.0764 8.33375 88.0341 9.06667C87.9917 9.89518 87.9705 10.6918 87.9705 11.4566C87.8646 13.018 87.8011 14.7229 87.7799 16.5711C87.7799 18.3874 87.7905 20.2356 87.8117 22.1157C87.8329 23.9958 87.8752 25.8281 87.9388 27.6126C88.0023 29.3971 88.0658 31.0222 88.1294 32.488C88.2141 33.922 88.2882 35.1488 88.3518 36.1686C88.4365 37.1564 88.5 37.7937 88.5424 38.0805C88.6271 38.5585 88.7118 39.0205 88.7966 39.4667C88.8813 39.8491 88.9766 40.2474 89.0825 40.6616C89.1884 41.1078 89.3155 41.4583 89.4637 41.7132H86.382C86.1067 41.7132 85.8419 41.7291 85.5877 41.761C85.3548 41.7929 85.1112 41.8247 84.857 41.8566C84.6029 41.8885 84.3699 41.9363 84.1581 42Z"/>
<path d="M104.618 13.3686C104.428 14.0696 104.258 14.7069 104.11 15.2805C103.983 15.8541 103.866 16.3639 103.76 16.8101C103.654 17.3199 103.559 17.766 103.474 18.1484C103.39 18.5945 103.294 19.1044 103.189 19.678C103.083 20.1878 102.945 20.8252 102.775 21.5899C102.627 22.3229 102.447 23.1992 102.235 24.2189C102.066 22.6893 101.759 21.4784 101.314 20.5862C100.869 19.6621 100.414 18.9451 99.9479 18.4352C99.3973 17.8616 98.8042 17.4474 98.1688 17.1925C97.0251 16.9057 96.199 16.9375 95.6907 17.2881C95.1824 17.6386 94.8435 18.0847 94.6741 18.6264C94.5893 18.8495 94.494 19.1363 94.3881 19.4868C94.3034 19.8055 94.2293 20.14 94.1657 20.4906C94.1234 20.8411 94.1128 21.1916 94.134 21.5421C94.1551 21.8927 94.2505 22.1795 94.4199 22.4025C94.5258 22.5618 94.8011 22.7849 95.2459 23.0717C95.6907 23.3266 96.2202 23.6293 96.8344 23.9799C97.4699 24.2985 98.137 24.6491 98.836 25.0314C99.5561 25.4138 100.234 25.7962 100.869 26.1786C101.505 26.561 102.055 26.9434 102.521 27.3258C102.987 27.7082 103.294 28.0587 103.443 28.3774C103.57 28.696 103.707 29.1262 103.856 29.6679C104.025 30.1778 104.142 30.7514 104.205 31.3887C104.29 31.9941 104.311 32.6314 104.269 33.3006C104.248 33.9379 104.131 34.5753 103.919 35.2126C103.707 35.8499 103.369 36.4394 102.903 36.9811C102.458 37.5229 101.854 37.969 101.092 38.3195C100.202 38.7338 99.3443 38.8453 98.5183 38.6541C97.6922 38.4629 96.9298 38.1761 96.2308 37.7937C95.553 37.4113 94.96 37.0449 94.4517 36.6943C93.9433 36.3119 93.5833 36.1526 93.3715 36.2164C93.1385 36.2801 92.8737 36.4553 92.5772 36.7421C92.2807 37.0289 91.9948 37.3317 91.7194 37.6503C91.4653 37.9371 91.2429 38.208 91.0522 38.4629C90.8616 38.686 90.7663 38.7656 90.7663 38.7019C90.7663 38.6382 90.7981 38.447 90.8616 38.1283C90.9463 37.8096 91.0311 37.4273 91.1158 36.9811C91.2217 36.5031 91.317 35.9933 91.4017 35.4516C91.5076 34.878 91.5818 34.3363 91.6241 33.8264C91.6665 33.4122 91.7194 32.9023 91.783 32.2969C91.8253 31.7551 91.8783 31.1019 91.9418 30.3371C92.0265 29.5405 92.1218 28.5845 92.2277 27.4692C92.3336 28.2977 92.4819 29.0147 92.6725 29.6201C92.8843 30.2256 93.0855 30.7514 93.2762 31.1975C93.5092 31.7073 93.7315 32.1375 93.9433 32.488C94.261 32.9342 94.6317 33.3484 95.0553 33.7308C95.5001 34.1132 95.9449 34.4478 96.3897 34.7346C96.8344 34.9895 97.2581 35.1488 97.6605 35.2126C98.0629 35.2763 98.4018 35.2126 98.6771 35.0214C98.9525 34.8302 99.1855 34.4797 99.3761 33.9698C99.5879 33.46 99.7361 32.9023 99.8209 32.2969C99.9056 31.6914 99.9373 31.1178 99.9162 30.5761C99.895 30.0025 99.7997 29.5405 99.6302 29.1899C99.5032 28.9669 99.2066 28.6801 98.7407 28.3296C98.2959 27.979 97.7558 27.5966 97.1204 27.1824C96.5062 26.7681 95.8496 26.3379 95.1506 25.8918C94.4729 25.4457 93.8269 24.9996 93.2126 24.5535C92.6196 24.0755 92.1218 23.6293 91.7194 23.2151C91.3382 22.769 91.1264 22.3706 91.084 22.0201C91.0417 21.5103 91.0099 20.9526 90.9887 20.3472C90.9675 19.7099 90.9887 19.0885 91.0522 18.483C91.137 17.8457 91.2852 17.2403 91.497 16.6667C91.73 16.0931 92.0689 15.6151 92.5137 15.2327C92.8102 14.9778 93.202 14.7866 93.6892 14.6591C94.1763 14.5317 94.7164 14.4679 95.3095 14.4679C95.9025 14.4361 96.5167 14.4679 97.1521 14.5635C97.7876 14.6273 98.3912 14.7229 98.9631 14.8503C99.5561 14.9459 100.086 15.0734 100.552 15.2327C101.039 15.392 101.409 15.5354 101.664 15.6629C101.96 15.8222 102.278 15.8382 102.617 15.7107C102.913 15.6151 103.231 15.408 103.57 15.0893C103.909 14.7706 104.258 14.1971 104.618 13.3686Z"/>
<path d="M114.276 19.2478C114.827 19.2478 115.399 19.4071 115.992 19.7258C116.585 20.0126 117.157 20.395 117.708 20.873C118.258 21.3191 118.756 21.813 119.201 22.3547C119.667 22.8646 120.048 23.3585 120.344 23.8365C120.874 24.6969 121.234 25.86 121.425 27.3258C121.636 28.7597 121.679 30.2415 121.552 31.7711C121.425 33.2688 121.128 34.6868 120.662 36.0252C120.196 37.3635 119.55 38.3514 118.724 38.9887C118.131 39.4348 117.549 39.7853 116.977 40.0403C116.405 40.2952 115.854 40.4864 115.325 40.6138C114.795 40.7413 114.298 40.805 113.832 40.805C113.366 40.805 112.963 40.7891 112.624 40.7572C111.989 40.6935 111.322 40.3589 110.623 39.7535C109.945 39.148 109.299 38.3992 108.685 37.5069C108.092 36.6147 107.583 35.6428 107.16 34.5912C106.736 33.5078 106.482 32.488 106.397 31.5321C106.27 30.2256 106.249 28.8553 106.334 27.4214C106.418 25.9874 106.726 24.665 107.255 23.4541C107.806 22.2432 108.632 21.2394 109.733 20.4428C110.856 19.6461 112.37 19.2478 114.276 19.2478ZM113.228 37.7937C113.461 37.8574 113.779 37.7778 114.181 37.5547C114.583 37.2998 114.975 36.9015 115.357 36.3597C115.759 35.818 116.108 35.1329 116.405 34.3044C116.723 33.444 116.913 32.4084 116.977 31.1975C117.04 30.0184 117.04 28.935 116.977 27.9472C116.934 26.9593 116.839 26.099 116.691 25.366C116.543 24.6013 116.373 23.9799 116.183 23.5019C115.992 23.0239 115.791 22.6893 115.579 22.4981C115.219 22.2113 114.785 21.9883 114.276 21.8289C113.768 21.6377 113.334 21.6696 112.974 21.9245C112.804 22.052 112.593 22.3229 112.338 22.7371C112.084 23.1514 111.83 23.6771 111.576 24.3145C111.322 24.9199 111.089 25.621 110.877 26.4176C110.686 27.2143 110.549 28.0428 110.464 28.9031C110.379 29.7635 110.358 30.6876 110.4 31.6755C110.464 32.6633 110.602 33.6034 110.813 34.4956C111.025 35.356 111.322 36.1048 111.703 36.7421C112.105 37.3476 112.614 37.6981 113.228 37.7937Z"/>
<path d="M122.918 18.005C123.405 17.9413 123.818 17.8776 124.157 17.8138C124.517 17.7501 124.814 17.6864 125.047 17.6226C125.322 17.5589 125.555 17.4952 125.745 17.4314C125.936 17.3996 126.148 17.3358 126.381 17.2403C126.593 17.1765 126.826 17.0969 127.08 17.0013C127.355 16.8738 127.652 16.7304 127.969 16.5711L127.779 22.6415C128.245 21.5262 128.785 20.6818 129.399 20.1082C130.013 19.5027 130.596 19.0566 131.146 18.7698C131.803 18.4193 132.46 18.2122 133.116 18.1484C133.794 18.1803 134.419 18.3396 134.991 18.6264C135.478 18.8813 135.965 19.2797 136.452 19.8214C136.96 20.3631 137.352 21.1597 137.628 22.2113C138.348 21.096 139.057 20.2356 139.756 19.6302C140.476 18.9929 141.112 18.5149 141.662 18.1962C142.319 17.8457 142.933 17.6386 143.505 17.5748C144.268 17.543 144.967 17.7342 145.602 18.1484C146.258 18.5627 146.83 19.0885 147.318 19.7258C147.805 20.3312 148.196 20.9845 148.493 21.6855C148.79 22.3547 148.959 22.9442 149.001 23.4541C149.065 24.1551 149.033 25.0633 148.906 26.1786C148.779 27.2621 148.631 28.3774 148.461 29.5245C148.292 30.6398 148.133 31.6755 147.985 32.6314C147.858 33.5556 147.805 34.2088 147.826 34.5912C147.889 34.9099 148.038 35.2922 148.271 35.7384C148.482 36.1208 148.79 36.5987 149.192 37.1723C149.616 37.714 150.219 38.3514 151.003 39.0843C150.325 39.0524 149.721 39.0205 149.192 38.9887C148.684 38.9568 148.249 38.909 147.889 38.8453C147.466 38.7816 147.095 38.7338 146.777 38.7019C146.523 38.7019 146.216 38.67 145.856 38.6063C145.56 38.5744 145.168 38.5266 144.681 38.4629C144.215 38.3992 143.675 38.3354 143.06 38.2717C143.293 38.1761 143.484 38.0008 143.632 37.7459C143.78 37.4591 143.907 37.1883 144.013 36.9333C144.119 36.6147 144.204 36.2642 144.268 35.8818C144.31 35.5631 144.352 35.0532 144.395 34.3522C144.437 33.6512 144.469 32.8545 144.49 31.9623C144.532 31.07 144.553 30.13 144.553 29.1421C144.575 28.1543 144.575 27.2143 144.553 26.322C144.532 25.4298 144.49 24.6172 144.426 23.8843C144.363 23.1514 144.278 22.5937 144.172 22.2113C144.088 21.9245 143.939 21.7015 143.727 21.5421C143.516 21.3509 143.272 21.2394 142.997 21.2075C142.721 21.1438 142.446 21.1597 142.171 21.2553C141.895 21.3191 141.652 21.4465 141.44 21.6377C141.249 21.8608 140.995 22.1635 140.678 22.5459C140.402 22.8964 140.042 23.3744 139.597 23.9799C139.153 24.5853 138.591 25.3501 137.913 26.2742C137.85 28.2818 137.797 29.9069 137.755 31.1497C137.733 32.3606 137.712 33.2847 137.691 33.922C137.67 34.6868 137.659 35.2126 137.659 35.4994C137.638 35.7543 137.649 35.9933 137.691 36.2164C137.733 36.6943 137.861 37.1405 138.072 37.5547C137.818 37.4591 137.543 37.3954 137.246 37.3635C136.971 37.3317 136.717 37.2998 136.484 37.2679C136.208 37.2361 135.933 37.2201 135.658 37.2201C135.425 37.2201 135.171 37.2361 134.895 37.2679C134.662 37.2998 134.376 37.3476 134.038 37.4113C133.699 37.4432 133.328 37.491 132.926 37.5547C133.095 37.3954 133.233 37.2042 133.339 36.9811C133.444 36.7581 133.529 36.5509 133.593 36.3597C133.677 36.1367 133.741 35.9296 133.783 35.7384C133.805 35.5472 133.847 35.0851 133.91 34.3522C133.974 33.5874 134.016 32.6952 134.038 31.6755C134.059 30.6558 134.059 29.5883 134.038 28.473C134.016 27.3258 133.942 26.2901 133.815 25.366C133.688 24.4101 133.487 23.6293 133.211 23.0239C132.957 22.4184 132.618 22.1476 132.195 22.2113C131.687 22.2751 131.168 22.4662 130.638 22.7849C130.193 23.0398 129.717 23.4222 129.208 23.9321C128.7 24.4419 128.224 25.127 127.779 25.9874C127.694 28.3774 127.641 30.2734 127.62 31.6755C127.62 33.0776 127.63 34.1451 127.652 34.878C127.673 35.7384 127.694 36.3279 127.715 36.6465C127.736 36.8696 127.789 37.0927 127.874 37.3157C127.938 37.5069 128.012 37.73 128.096 37.9849C128.202 38.2398 128.319 38.4788 128.446 38.7019L123.394 38.3195C123.564 38.192 123.712 38.0327 123.839 37.8415C123.966 37.6184 124.072 37.3954 124.157 37.1723C124.242 36.9174 124.326 36.6625 124.411 36.4075C124.475 36.1845 124.528 35.6587 124.57 34.8302C124.633 34.0017 124.686 33.0298 124.729 31.9145C124.771 30.7673 124.803 29.5723 124.824 28.3296C124.866 27.0549 124.888 25.8759 124.888 24.7925C124.909 23.6771 124.919 22.7371 124.919 21.9723C124.919 21.1757 124.909 20.6977 124.888 20.5384C124.824 20.2197 124.708 19.8851 124.538 19.5346C124.39 19.2797 124.189 19.0088 123.935 18.722C123.68 18.4034 123.341 18.1644 122.918 18.005Z"/>
<path d="M159.422 32.966C160.015 32.966 160.566 32.8704 161.074 32.6792C161.498 32.5199 161.9 32.265 162.281 31.9145C162.684 31.5321 162.949 30.9744 163.076 30.2415C163.499 30.369 163.859 30.4805 164.156 30.5761C164.452 30.6398 164.706 30.7036 164.918 30.7673C165.151 30.8629 165.352 30.9266 165.522 30.9585C165.691 31.0222 165.893 31.086 166.126 31.1497C166.337 31.2134 166.592 31.2931 166.888 31.3887C167.206 31.4524 167.576 31.548 168 31.6755C167.682 31.6117 167.354 31.6595 167.015 31.8189C166.697 31.9782 166.39 32.1535 166.094 32.3447C165.755 32.5677 165.437 32.8386 165.141 33.1572C164.95 33.3484 164.728 33.6352 164.473 34.0176C164.241 34.4 163.902 34.7665 163.457 35.117C163.012 35.4675 162.419 35.7702 161.678 36.0252C160.958 36.2482 160.026 36.3279 158.882 36.2642C157.505 36.2004 156.351 35.834 155.419 35.1648C154.487 34.4637 153.735 33.6193 153.163 32.6314C152.591 31.6117 152.178 30.5124 151.924 29.3333C151.67 28.1543 151.532 27.0549 151.511 26.0352C151.49 25.0155 151.691 23.948 152.115 22.8327C152.538 21.7174 153.131 20.6977 153.894 19.7736C154.678 18.8495 155.62 18.1006 156.722 17.527C157.823 16.9216 159.03 16.6189 160.343 16.6189C161.106 16.6189 161.805 16.7623 162.44 17.0491C163.097 17.304 163.69 17.6545 164.219 18.1006C164.77 18.5468 165.247 19.0566 165.649 19.6302C166.051 20.1719 166.39 20.7296 166.666 21.3031C166.941 21.9086 167.174 22.5459 167.365 23.2151C167.534 23.7887 167.672 24.4419 167.778 25.1748C167.884 25.9078 167.915 26.6566 167.873 27.4214C166.263 27.4851 164.961 27.5329 163.965 27.5648C162.991 27.5966 162.228 27.6126 161.678 27.6126H160.248H159.168C158.787 27.6126 158.289 27.6285 157.675 27.6604C157.06 27.6922 156.309 27.74 155.419 27.8038C155.525 29.0784 155.79 30.0662 156.213 30.7673C156.658 31.4365 157.124 31.9463 157.611 32.2969C158.162 32.6792 158.765 32.9023 159.422 32.966ZM156.563 24.3623C157.24 24.426 157.802 24.4738 158.247 24.5057C158.712 24.5375 159.094 24.5694 159.39 24.6013C159.708 24.6331 159.962 24.6491 160.153 24.6491H160.947C161.476 24.6491 162.461 24.6013 163.902 24.5057C163.838 23.1036 163.637 22.0361 163.298 21.3031C162.98 20.5702 162.641 20.0285 162.281 19.678C161.858 19.2956 161.392 19.0725 160.883 19.0088C159.507 19.0407 158.479 19.4709 157.802 20.2994C157.145 21.1279 156.732 22.4822 156.563 24.3623Z"/>
</mask>
<path d="M2 5.76855C3.41907 6.02348 4.64753 6.21468 5.68536 6.34214C6.72319 6.43774 7.58099 6.5174 8.25876 6.58113C9.04242 6.64486 9.69901 6.6608 10.2285 6.62893C10.7792 6.59706 11.5311 6.5174 12.4842 6.38994C13.2891 6.29434 14.3481 6.16688 15.6612 6.00755C16.9744 5.81635 18.6159 5.56143 20.5856 5.24277C20.6068 5.97568 20.6174 6.69266 20.6174 7.39371C20.6386 8.06289 20.6598 8.65241 20.681 9.16226C20.7021 9.76771 20.7127 10.3254 20.7127 10.8352C20.7127 11.3769 20.6915 12.0621 20.6492 12.8906C20.6068 13.5916 20.5327 14.4839 20.4268 15.5673C20.3421 16.6189 20.2044 17.8776 20.0138 19.3434C19.7173 17.6226 19.4313 16.2365 19.156 15.1849C18.8806 14.1015 18.6265 13.2411 18.3935 12.6038C18.1393 11.8709 17.8852 11.3132 17.631 10.9308C17.3557 10.644 17.0274 10.405 16.6461 10.2138C16.3072 10.0545 15.873 9.92704 15.3435 9.83145C14.8352 9.73585 14.2316 9.75178 13.5326 9.87925C13.4267 14.0855 13.3526 17.4952 13.3102 20.1082C13.2679 22.7212 13.2361 24.7606 13.2149 26.2264C13.1937 27.979 13.1832 29.2377 13.1832 30.0025C13.2043 31.086 13.3208 32.1535 13.5326 33.205C13.7021 34.0973 13.9774 35.0214 14.3587 35.9774C14.7399 36.9333 15.2906 37.7778 16.0107 38.5107H12.1347C11.7747 38.5107 11.3299 38.5426 10.8004 38.6063C10.3556 38.67 9.78373 38.7338 9.08478 38.7975C8.40702 38.8612 7.61276 38.9727 6.70201 39.1321C7.01971 38.3036 7.27388 37.5547 7.4645 36.8855C7.65512 36.2164 7.80338 35.6428 7.90928 35.1648C8.03636 34.5912 8.13167 34.0813 8.19522 33.6352C8.2164 32.9979 8.26935 31.7073 8.35407 29.7635C8.37525 28.9669 8.39643 27.979 8.41761 26.8C8.45997 25.621 8.50233 24.2189 8.54469 22.5937C8.60823 20.9686 8.66118 19.1044 8.70354 17.0013C8.76708 14.8662 8.83062 12.4604 8.89416 9.78365C8.51292 9.62432 8.15285 9.64025 7.81397 9.83145C7.47509 9.99078 7.17856 10.1979 6.9244 10.4528C6.62788 10.7715 6.34195 11.1539 6.0666 11.6C5.79126 12.1417 5.48415 12.8428 5.14526 13.7031C4.84874 14.4361 4.50986 15.408 4.12861 16.6189C3.74737 17.7979 3.31317 19.2637 2.82603 21.0164C2.72013 19.1681 2.646 17.6545 2.60364 16.4755C2.56128 15.2646 2.52951 14.3245 2.50833 13.6553C2.48715 12.8587 2.47656 12.2692 2.47656 11.8868C2.47656 11.5363 2.45537 11.0742 2.41301 10.5006C2.37065 10.0226 2.3177 9.40126 2.25416 8.63648C2.19062 7.83983 2.1059 6.88386 2 5.76855Z" fill="white"/>
<path d="M19.2831 17.766C19.6855 17.7979 20.0455 17.8138 20.3633 17.8138C20.7021 17.782 20.9881 17.7501 21.2211 17.7182C21.4964 17.6864 21.74 17.6545 21.9518 17.6226C22.2695 17.5589 22.5978 17.4792 22.9366 17.3836C23.2332 17.3199 23.5403 17.2403 23.858 17.1447C24.1969 17.0172 24.5252 16.8738 24.8429 16.7145C24.7158 17.1925 24.6099 17.6067 24.5252 17.9572C24.4404 18.3078 24.3769 18.6105 24.3345 18.8654C24.271 19.1522 24.2392 19.3912 24.2392 19.5824C24.2181 19.8055 24.2075 20.0763 24.2075 20.395C24.1863 20.9367 24.1863 21.813 24.2075 23.0239C25.3088 21.5899 26.2302 20.4746 26.9715 19.678C27.734 18.8813 28.3376 18.26 28.7824 17.8138C29.3119 17.304 29.7249 16.9694 30.0214 16.8101C30.8051 16.6189 31.4935 16.8897 32.0865 17.6226C32.3407 17.9413 32.5842 18.3715 32.8172 18.9132C33.0502 19.4231 33.2514 20.1082 33.4209 20.9686C33.5903 21.8289 33.7174 22.8646 33.8021 24.0755C33.8868 25.2545 33.8974 26.6725 33.8339 28.3296C33.3891 28.3933 32.9867 28.457 32.6266 28.5208C32.2877 28.5845 32.0018 28.6323 31.7688 28.6642C31.4935 28.7279 31.2393 28.7597 31.0063 28.7597L30.1485 28.9031C29.852 28.9669 29.4813 29.0306 29.0366 29.0943C28.6129 29.1262 28.094 29.1899 27.4798 29.2855C28.3694 28.2021 28.9412 27.2621 29.1954 26.4654C29.4707 25.6369 29.5872 24.9518 29.5449 24.4101C29.5025 23.8046 29.3119 23.2788 28.973 22.8327C28.5706 22.4822 28.1364 22.3547 27.6704 22.4503C27.268 22.514 26.802 22.7849 26.2725 23.2629C25.743 23.7409 25.1818 24.6331 24.5887 25.9396C24.6311 27.979 24.6734 29.6679 24.7158 31.0063C24.7793 32.3447 24.8323 33.4281 24.8746 34.2566C24.9382 35.2126 24.9911 35.9614 25.0335 36.5031C25.097 36.9811 25.2241 37.491 25.4147 38.0327C25.563 38.4788 25.7748 38.9727 26.0501 39.5145C26.3255 40.0562 26.6855 40.5979 27.1303 41.1396C26.1984 41.0759 25.4359 41.0759 24.8429 41.1396C24.4828 41.1715 24.1651 41.2034 23.8898 41.2352C23.5932 41.299 23.2755 41.3627 22.9366 41.4264C22.6401 41.4901 22.2907 41.5539 21.8882 41.6176C21.507 41.7132 21.0834 41.8088 20.6174 41.9044C20.7869 41.5539 20.9245 41.1396 21.0304 40.6616C21.1363 40.2155 21.2211 39.7853 21.2846 39.3711C21.3693 38.8931 21.4329 38.3992 21.4752 37.8893C21.4964 37.4432 21.507 36.774 21.507 35.8818C21.5282 34.9895 21.5176 33.9857 21.4752 32.8704C21.454 31.7233 21.4223 30.5442 21.3799 29.3333C21.3375 28.0906 21.2846 26.9275 21.2211 25.844C21.1575 24.7606 21.0834 23.8205 20.9987 23.0239C20.9351 22.1954 20.861 21.6218 20.7763 21.3031C20.6704 20.9208 20.5433 20.5384 20.395 20.156C20.2679 19.8055 20.1091 19.439 19.9185 19.0566C19.7278 18.6423 19.516 18.2122 19.2831 17.766Z" fill="white"/>
<path d="M37.551 21.3031C37.6569 21.1119 37.7204 20.7614 37.7416 20.2516C37.784 19.7099 37.8687 19.1044 37.9958 18.4352C38.144 17.766 38.3876 17.065 38.7265 16.3321C39.0654 15.5992 39.6161 14.914 40.3786 14.2767C41.1199 13.6394 41.84 13.257 42.5389 13.1296C43.2379 13.0021 43.9051 13.0499 44.5405 13.273C45.1759 13.496 45.7689 13.8465 46.3196 14.3245C46.8915 14.8025 47.4104 15.3283 47.8764 15.9019C48.1941 16.2843 48.4482 16.8419 48.6388 17.5748C48.8295 18.2759 48.9777 19.0725 49.0836 19.9648C49.1895 20.857 49.2637 21.7971 49.306 22.7849C49.3696 23.7409 49.4119 24.6809 49.4331 25.605C49.4543 26.4973 49.4649 27.3258 49.4649 28.0906C49.4861 28.8235 49.5284 29.4289 49.592 29.9069C49.6767 30.608 49.8249 31.2134 50.0367 31.7233C50.2485 32.2013 50.4815 32.6155 50.7357 32.966C50.9899 33.2847 51.244 33.5396 51.4982 33.7308C51.7523 33.922 51.9747 34.0654 52.1654 34.161C52.2924 34.2566 52.4089 34.3203 52.5148 34.3522C52.7266 34.4797 52.8749 34.4797 52.9596 34.3522C52.8325 34.7983 52.716 35.1807 52.6101 35.4994C52.5042 35.818 52.4195 36.0889 52.356 36.3119C52.2713 36.5669 52.1971 36.774 52.1336 36.9333C52.07 37.1245 51.9959 37.2998 51.9112 37.4591C51.8477 37.6184 51.7629 37.7937 51.657 37.9849C51.5511 38.1761 51.4452 38.3832 51.3393 38.6063C51.064 38.447 50.7992 38.2558 50.5451 38.0327C50.3121 37.8096 50.1003 37.6025 49.9097 37.4113C49.6767 37.1883 49.4649 36.9652 49.2743 36.7421C49.0836 36.5191 48.9036 36.2642 48.7342 35.9774C48.5859 35.7224 48.427 35.4516 48.2576 35.1648C48.1093 34.878 47.9823 34.5593 47.8764 34.2088C47.7493 34.6231 47.4422 35.2126 46.955 35.9774C46.4891 36.7421 45.8748 37.4432 45.1123 38.0805C44.3499 38.686 43.4603 39.1161 42.4436 39.3711C41.4482 39.626 40.3468 39.4507 39.1395 38.8453C38.61 38.5904 38.1123 38.2239 37.6463 37.7459C37.1803 37.2361 36.7779 36.6306 36.439 35.9296C36.1213 35.2285 35.8884 34.4319 35.7401 33.5396C35.613 32.6155 35.6236 31.5958 35.7719 30.4805C35.9201 29.3652 36.1849 28.4252 36.5661 27.6604C36.9474 26.8956 37.4027 26.2742 37.9322 25.7962C38.4618 25.3182 39.0548 24.9518 39.7114 24.6969C40.368 24.4419 41.0457 24.2667 41.7447 24.1711C42.2954 24.1392 42.8461 24.187 43.3967 24.3145C43.8627 24.4419 44.3499 24.6809 44.8582 25.0314C45.3665 25.3501 45.8007 25.844 46.1608 26.5132C46.1396 24.8243 46.0972 23.486 46.0337 22.4981C45.9913 21.4784 45.949 20.6977 45.9066 20.156C45.8219 19.5187 45.7477 19.0725 45.6842 18.8176C45.5783 18.5945 45.4618 18.3396 45.3347 18.0528C45.2288 17.766 45.0912 17.5111 44.9217 17.2881C44.7523 17.0331 44.5405 16.826 44.2863 16.6667C44.0322 16.5073 43.7356 16.4436 43.3967 16.4755C43.0367 16.5073 42.7507 16.6507 42.5389 16.9057C42.3271 17.1606 42.1577 17.4633 42.0306 17.8138C41.9247 18.1325 41.8612 18.483 41.84 18.8654C41.8188 19.2478 41.8294 19.5824 41.8718 19.8692C41.9141 20.0604 41.9777 20.2675 42.0624 20.4906C42.1471 20.6818 42.2636 20.8889 42.4119 21.1119C42.5601 21.335 42.7613 21.5262 43.0155 21.6855C42.5284 21.7811 42.0942 21.8608 41.7129 21.9245C41.3317 21.9564 41.0034 22.0042 40.728 22.0679C40.4103 22.1317 40.135 22.1795 39.902 22.2113C39.669 22.2432 39.3937 22.3069 39.076 22.4025C38.8006 22.4662 38.4618 22.5459 38.0593 22.6415C37.6569 22.7371 37.1909 22.8646 36.6614 23.0239C36.7885 22.8008 36.905 22.5937 37.0109 22.4025C37.1168 22.1795 37.2121 21.9883 37.2968 21.8289C37.3816 21.6377 37.4663 21.4625 37.551 21.3031ZM42.3166 26.9912C41.9353 27.0231 41.5541 27.1665 41.1728 27.4214C40.7916 27.6444 40.4527 27.979 40.1562 28.4252C39.8596 28.8394 39.6055 29.3333 39.3937 29.9069C39.2031 30.4486 39.1077 31.0541 39.1077 31.7233C39.1077 32.3925 39.2137 32.982 39.4255 33.4918C39.6584 33.9698 39.955 34.3681 40.315 34.6868C40.6963 35.0055 41.0987 35.1966 41.5223 35.2604C41.9671 35.3241 42.4013 35.2604 42.8249 35.0692C43.2273 34.8461 43.6085 34.4956 43.9686 34.0176C44.3287 33.5078 44.6358 32.966 44.89 32.3925C45.1441 31.787 45.3241 31.1975 45.43 30.6239C45.5359 30.0184 45.5465 29.5245 45.4618 29.1421C45.2924 28.3136 44.9111 27.74 44.3181 27.4214C43.725 27.0709 43.0579 26.9275 42.3166 26.9912Z" fill="white"/>
<path d="M50.5451 14.3245C50.9051 14.4201 51.2758 14.4998 51.657 14.5635C52.0171 14.5954 52.3454 14.6273 52.6419 14.6591C52.9808 14.691 53.3091 14.7069 53.6268 14.7069C53.9445 14.7069 54.3046 14.691 54.707 14.6591C55.0459 14.6273 55.4483 14.5795 55.9143 14.5157C56.4014 14.452 56.9309 14.3564 57.5028 14.2289C57.1639 14.5157 56.8991 14.8184 56.7085 15.1371C56.5179 15.4558 56.3696 15.7426 56.2637 15.9975C56.1366 16.3161 56.0519 16.6029 56.0096 16.8579C55.9672 17.1128 55.9778 17.6386 56.0413 18.4352C56.1049 19.2319 56.1896 20.156 56.2955 21.2075C56.4226 22.2591 56.5603 23.3585 56.7085 24.5057C56.8568 25.6528 57.005 26.7044 57.1533 27.6604C57.3227 28.6164 57.471 29.413 57.5981 30.0503C57.7463 30.6876 57.8628 30.9904 57.9476 30.9585C58.0323 30.9585 58.1594 30.6398 58.3288 30.0025C58.5194 29.3652 58.7312 28.5845 58.9642 27.6604C59.1972 26.7044 59.4408 25.6688 59.6949 24.5535C59.9491 23.4063 60.1715 22.3388 60.3621 21.3509C60.5527 20.3631 60.701 19.5346 60.8069 18.8654C60.934 18.1644 60.9869 17.7501 60.9657 17.6226C60.9022 17.4952 60.8281 17.3199 60.7433 17.0969C60.5951 16.7463 60.2668 16.1409 59.7585 15.2805C60.3727 15.3442 60.9022 15.408 61.347 15.4717C61.7918 15.5036 62.1518 15.5514 62.4272 15.6151C62.7449 15.6788 62.999 15.7266 63.1897 15.7585C63.3803 15.7904 63.6556 15.7904 64.0157 15.7585C64.3122 15.7585 64.704 15.7426 65.1912 15.7107C65.6995 15.647 66.3243 15.5514 67.0656 15.4239C66.515 15.9019 66.0596 16.3321 65.6995 16.7145C65.3606 17.065 65.0959 17.3677 64.9053 17.6226C64.6723 17.9413 64.5028 18.2122 64.3969 18.4352C64.2487 18.8495 63.9839 19.8373 63.6027 21.3987C63.4332 22.0679 63.2214 22.8964 62.9673 23.8843C62.7343 24.8721 62.4484 26.0671 62.1095 27.4692C61.7918 28.8394 61.4105 30.4486 60.9657 32.2969C60.521 34.1451 60.0232 36.2642 59.4725 38.6541L56.3908 39.1321C55.9884 37.1245 55.6601 35.4516 55.4059 34.1132C55.1729 32.743 54.9823 31.6436 54.8341 30.8151C54.6646 29.8591 54.5375 29.1103 54.4528 28.5686C54.3469 27.9631 54.2198 27.0868 54.0716 25.9396C53.9233 24.7606 53.7751 23.5656 53.6268 22.3547C53.4785 21.1438 53.3303 20.0604 53.182 19.1044C53.0337 18.1166 52.9173 17.5111 52.8325 17.2881C52.7478 17.1287 52.5996 16.9057 52.3877 16.6189C52.2183 16.3639 51.9853 16.0612 51.6888 15.7107C51.3923 15.3283 51.011 14.8662 50.5451 14.3245Z" fill="white"/>
<path d="M73.7056 32.966C74.2987 32.966 74.8494 32.8704 75.3577 32.6792C75.7813 32.5199 76.1837 32.265 76.565 31.9145C76.9674 31.5321 77.2322 30.9744 77.3592 30.2415C77.7828 30.369 78.1429 30.4805 78.4394 30.5761C78.7359 30.6398 78.9901 30.7036 79.2019 30.7673C79.4349 30.8629 79.6361 30.9266 79.8055 30.9585C79.975 31.0222 80.1762 31.086 80.4092 31.1497C80.621 31.2134 80.8751 31.2931 81.1717 31.3887C81.4894 31.4524 81.86 31.548 82.2836 31.6755C81.9659 31.6117 81.6376 31.6595 81.2988 31.8189C80.981 31.9782 80.6739 32.1535 80.3774 32.3447C80.0385 32.5677 79.7208 32.8386 79.4243 33.1572C79.2337 33.3484 79.0113 33.6352 78.7571 34.0176C78.5241 34.4 78.1853 34.7665 77.7405 35.117C77.2957 35.4675 76.7026 35.7702 75.9613 36.0252C75.2412 36.2482 74.3093 36.3279 73.1655 36.2642C71.7888 36.2004 70.6345 35.834 69.7026 35.1648C68.7707 34.4637 68.0188 33.6193 67.4469 32.6314C66.875 31.6117 66.462 30.5124 66.2078 29.3333C65.9537 28.1543 65.816 27.0549 65.7948 26.0352C65.7736 25.0155 65.9749 23.948 66.3985 22.8327C66.8221 21.7174 67.4151 20.6977 68.1776 19.7736C68.9613 18.8495 69.9038 18.1006 71.0052 17.527C72.1065 16.9216 73.3138 16.6189 74.627 16.6189C75.3895 16.6189 76.0884 16.7623 76.7238 17.0491C77.3804 17.304 77.9735 17.6545 78.503 18.1006C79.0536 18.5468 79.5302 19.0566 79.9326 19.6302C80.3351 20.1719 80.6739 20.7296 80.9493 21.3031C81.2246 21.9086 81.4576 22.5459 81.6482 23.2151C81.8177 23.7887 81.9553 24.4419 82.0612 25.1748C82.1671 25.9078 82.1989 26.6566 82.1566 27.4214C80.5469 27.4851 79.2443 27.5329 78.2488 27.5648C77.2745 27.5966 76.512 27.6126 75.9613 27.6126H74.5317H73.4515C73.0702 27.6126 72.5725 27.6285 71.9583 27.6604C71.344 27.6922 70.5922 27.74 69.7026 27.8038C69.8085 29.0784 70.0732 30.0662 70.4968 30.7673C70.9416 31.4365 71.4076 31.9463 71.8947 32.2969C72.4454 32.6792 73.0491 32.9023 73.7056 32.966ZM70.8463 24.3623C71.5241 24.426 72.0854 24.4738 72.5301 24.5057C72.9961 24.5375 73.3773 24.5694 73.6739 24.6013C73.9916 24.6331 74.2457 24.6491 74.4364 24.6491H75.2306C75.7601 24.6491 76.745 24.6013 78.1853 24.5057C78.1217 23.1036 77.9205 22.0361 77.5816 21.3031C77.2639 20.5702 76.925 20.0285 76.565 19.678C76.1414 19.2956 75.6754 19.0725 75.1671 19.0088C73.7904 19.0407 72.7631 19.4709 72.0854 20.2994C71.4288 21.1279 71.0158 22.4822 70.8463 24.3623Z" fill="white"/>
<path d="M84.1581 42C84.3699 41.522 84.5393 41.0759 84.6664 40.6616C84.7935 40.2474 84.8994 39.8969 84.9841 39.6101C85.0688 39.2595 85.1324 38.9409 85.1747 38.6541C85.1959 38.4629 85.2065 37.9052 85.2065 36.9811C85.2065 36.057 85.1853 34.8939 85.143 33.4918C85.1218 32.0897 85.09 30.5124 85.0477 28.7597C85.0265 27.0071 84.9841 25.2226 84.9206 23.4063C84.8782 21.5899 84.8253 19.8214 84.7617 18.1006C84.7194 16.3799 84.677 14.8344 84.6346 13.4642C84.5923 12.0621 84.5499 10.9149 84.5076 10.0226C84.4652 9.1304 84.4334 8.62055 84.4122 8.49308C84.3699 8.30189 84.2958 8.11069 84.1899 7.9195C83.9781 7.53711 83.618 7.17065 83.1097 6.82013C84.1899 6.40587 85.0159 6.07128 85.5877 5.81635C85.9266 5.68889 86.2232 5.56143 86.4773 5.43396C86.7103 5.3065 86.9433 5.17904 87.1763 5.05157C87.3669 4.92411 87.5787 4.78071 87.8117 4.62138C88.0447 4.43019 88.2565 4.22306 88.4471 4C88.3412 4.92411 88.2565 5.81635 88.1929 6.67673C88.1294 7.53711 88.0764 8.33375 88.0341 9.06667C87.9917 9.89518 87.9705 10.6918 87.9705 11.4566C87.8646 13.018 87.8011 14.7229 87.7799 16.5711C87.7799 18.3874 87.7905 20.2356 87.8117 22.1157C87.8329 23.9958 87.8752 25.8281 87.9388 27.6126C88.0023 29.3971 88.0658 31.0222 88.1294 32.488C88.2141 33.922 88.2882 35.1488 88.3518 36.1686C88.4365 37.1564 88.5 37.7937 88.5424 38.0805C88.6271 38.5585 88.7118 39.0205 88.7966 39.4667C88.8813 39.8491 88.9766 40.2474 89.0825 40.6616C89.1884 41.1078 89.3155 41.4583 89.4637 41.7132H86.382C86.1067 41.7132 85.8419 41.7291 85.5877 41.761C85.3548 41.7929 85.1112 41.8247 84.857 41.8566C84.6029 41.8885 84.3699 41.9363 84.1581 42Z" fill="white"/>
<path d="M104.618 13.3686C104.428 14.0696 104.258 14.7069 104.11 15.2805C103.983 15.8541 103.866 16.3639 103.76 16.8101C103.654 17.3199 103.559 17.766 103.474 18.1484C103.39 18.5945 103.294 19.1044 103.189 19.678C103.083 20.1878 102.945 20.8252 102.775 21.5899C102.627 22.3229 102.447 23.1992 102.235 24.2189C102.066 22.6893 101.759 21.4784 101.314 20.5862C100.869 19.6621 100.414 18.9451 99.9479 18.4352C99.3973 17.8616 98.8042 17.4474 98.1688 17.1925C97.0251 16.9057 96.199 16.9375 95.6907 17.2881C95.1824 17.6386 94.8435 18.0847 94.6741 18.6264C94.5893 18.8495 94.494 19.1363 94.3881 19.4868C94.3034 19.8055 94.2293 20.14 94.1657 20.4906C94.1234 20.8411 94.1128 21.1916 94.134 21.5421C94.1551 21.8927 94.2505 22.1795 94.4199 22.4025C94.5258 22.5618 94.8011 22.7849 95.2459 23.0717C95.6907 23.3266 96.2202 23.6293 96.8344 23.9799C97.4699 24.2985 98.137 24.6491 98.836 25.0314C99.5561 25.4138 100.234 25.7962 100.869 26.1786C101.505 26.561 102.055 26.9434 102.521 27.3258C102.987 27.7082 103.294 28.0587 103.443 28.3774C103.57 28.696 103.707 29.1262 103.856 29.6679C104.025 30.1778 104.142 30.7514 104.205 31.3887C104.29 31.9941 104.311 32.6314 104.269 33.3006C104.248 33.9379 104.131 34.5753 103.919 35.2126C103.707 35.8499 103.369 36.4394 102.903 36.9811C102.458 37.5229 101.854 37.969 101.092 38.3195C100.202 38.7338 99.3443 38.8453 98.5183 38.6541C97.6922 38.4629 96.9298 38.1761 96.2308 37.7937C95.553 37.4113 94.96 37.0449 94.4517 36.6943C93.9433 36.3119 93.5833 36.1526 93.3715 36.2164C93.1385 36.2801 92.8737 36.4553 92.5772 36.7421C92.2807 37.0289 91.9948 37.3317 91.7194 37.6503C91.4653 37.9371 91.2429 38.208 91.0522 38.4629C90.8616 38.686 90.7663 38.7656 90.7663 38.7019C90.7663 38.6382 90.7981 38.447 90.8616 38.1283C90.9463 37.8096 91.0311 37.4273 91.1158 36.9811C91.2217 36.5031 91.317 35.9933 91.4017 35.4516C91.5076 34.878 91.5818 34.3363 91.6241 33.8264C91.6665 33.4122 91.7194 32.9023 91.783 32.2969C91.8253 31.7551 91.8783 31.1019 91.9418 30.3371C92.0265 29.5405 92.1218 28.5845 92.2277 27.4692C92.3336 28.2977 92.4819 29.0147 92.6725 29.6201C92.8843 30.2256 93.0855 30.7514 93.2762 31.1975C93.5092 31.7073 93.7315 32.1375 93.9433 32.488C94.261 32.9342 94.6317 33.3484 95.0553 33.7308C95.5001 34.1132 95.9449 34.4478 96.3897 34.7346C96.8344 34.9895 97.2581 35.1488 97.6605 35.2126C98.0629 35.2763 98.4018 35.2126 98.6771 35.0214C98.9525 34.8302 99.1855 34.4797 99.3761 33.9698C99.5879 33.46 99.7361 32.9023 99.8209 32.2969C99.9056 31.6914 99.9373 31.1178 99.9162 30.5761C99.895 30.0025 99.7997 29.5405 99.6302 29.1899C99.5032 28.9669 99.2066 28.6801 98.7407 28.3296C98.2959 27.979 97.7558 27.5966 97.1204 27.1824C96.5062 26.7681 95.8496 26.3379 95.1506 25.8918C94.4729 25.4457 93.8269 24.9996 93.2126 24.5535C92.6196 24.0755 92.1218 23.6293 91.7194 23.2151C91.3382 22.769 91.1264 22.3706 91.084 22.0201C91.0417 21.5103 91.0099 20.9526 90.9887 20.3472C90.9675 19.7099 90.9887 19.0885 91.0522 18.483C91.137 17.8457 91.2852 17.2403 91.497 16.6667C91.73 16.0931 92.0689 15.6151 92.5137 15.2327C92.8102 14.9778 93.202 14.7866 93.6892 14.6591C94.1763 14.5317 94.7164 14.4679 95.3095 14.4679C95.9025 14.4361 96.5167 14.4679 97.1521 14.5635C97.7876 14.6273 98.3912 14.7229 98.9631 14.8503C99.5561 14.9459 100.086 15.0734 100.552 15.2327C101.039 15.392 101.409 15.5354 101.664 15.6629C101.96 15.8222 102.278 15.8382 102.617 15.7107C102.913 15.6151 103.231 15.408 103.57 15.0893C103.909 14.7706 104.258 14.1971 104.618 13.3686Z" fill="white"/>
<path d="M114.276 19.2478C114.827 19.2478 115.399 19.4071 115.992 19.7258C116.585 20.0126 117.157 20.395 117.708 20.873C118.258 21.3191 118.756 21.813 119.201 22.3547C119.667 22.8646 120.048 23.3585 120.344 23.8365C120.874 24.6969 121.234 25.86 121.425 27.3258C121.636 28.7597 121.679 30.2415 121.552 31.7711C121.425 33.2688 121.128 34.6868 120.662 36.0252C120.196 37.3635 119.55 38.3514 118.724 38.9887C118.131 39.4348 117.549 39.7853 116.977 40.0403C116.405 40.2952 115.854 40.4864 115.325 40.6138C114.795 40.7413 114.298 40.805 113.832 40.805C113.366 40.805 112.963 40.7891 112.624 40.7572C111.989 40.6935 111.322 40.3589 110.623 39.7535C109.945 39.148 109.299 38.3992 108.685 37.5069C108.092 36.6147 107.583 35.6428 107.16 34.5912C106.736 33.5078 106.482 32.488 106.397 31.5321C106.27 30.2256 106.249 28.8553 106.334 27.4214C106.418 25.9874 106.726 24.665 107.255 23.4541C107.806 22.2432 108.632 21.2394 109.733 20.4428C110.856 19.6461 112.37 19.2478 114.276 19.2478ZM113.228 37.7937C113.461 37.8574 113.779 37.7778 114.181 37.5547C114.583 37.2998 114.975 36.9015 115.357 36.3597C115.759 35.818 116.108 35.1329 116.405 34.3044C116.723 33.444 116.913 32.4084 116.977 31.1975C117.04 30.0184 117.04 28.935 116.977 27.9472C116.934 26.9593 116.839 26.099 116.691 25.366C116.543 24.6013 116.373 23.9799 116.183 23.5019C115.992 23.0239 115.791 22.6893 115.579 22.4981C115.219 22.2113 114.785 21.9883 114.276 21.8289C113.768 21.6377 113.334 21.6696 112.974 21.9245C112.804 22.052 112.593 22.3229 112.338 22.7371C112.084 23.1514 111.83 23.6771 111.576 24.3145C111.322 24.9199 111.089 25.621 110.877 26.4176C110.686 27.2143 110.549 28.0428 110.464 28.9031C110.379 29.7635 110.358 30.6876 110.4 31.6755C110.464 32.6633 110.602 33.6034 110.813 34.4956C111.025 35.356 111.322 36.1048 111.703 36.7421C112.105 37.3476 112.614 37.6981 113.228 37.7937Z" fill="white"/>
<path d="M122.918 18.005C123.405 17.9413 123.818 17.8776 124.157 17.8138C124.517 17.7501 124.814 17.6864 125.047 17.6226C125.322 17.5589 125.555 17.4952 125.745 17.4314C125.936 17.3996 126.148 17.3358 126.381 17.2403C126.593 17.1765 126.826 17.0969 127.08 17.0013C127.355 16.8738 127.652 16.7304 127.969 16.5711L127.779 22.6415C128.245 21.5262 128.785 20.6818 129.399 20.1082C130.013 19.5027 130.596 19.0566 131.146 18.7698C131.803 18.4193 132.46 18.2122 133.116 18.1484C133.794 18.1803 134.419 18.3396 134.991 18.6264C135.478 18.8813 135.965 19.2797 136.452 19.8214C136.96 20.3631 137.352 21.1597 137.628 22.2113C138.348 21.096 139.057 20.2356 139.756 19.6302C140.476 18.9929 141.112 18.5149 141.662 18.1962C142.319 17.8457 142.933 17.6386 143.505 17.5748C144.268 17.543 144.967 17.7342 145.602 18.1484C146.258 18.5627 146.83 19.0885 147.318 19.7258C147.805 20.3312 148.196 20.9845 148.493 21.6855C148.79 22.3547 148.959 22.9442 149.001 23.4541C149.065 24.1551 149.033 25.0633 148.906 26.1786C148.779 27.2621 148.631 28.3774 148.461 29.5245C148.292 30.6398 148.133 31.6755 147.985 32.6314C147.858 33.5556 147.805 34.2088 147.826 34.5912C147.889 34.9099 148.038 35.2922 148.271 35.7384C148.482 36.1208 148.79 36.5987 149.192 37.1723C149.616 37.714 150.219 38.3514 151.003 39.0843C150.325 39.0524 149.721 39.0205 149.192 38.9887C148.684 38.9568 148.249 38.909 147.889 38.8453C147.466 38.7816 147.095 38.7338 146.777 38.7019C146.523 38.7019 146.216 38.67 145.856 38.6063C145.56 38.5744 145.168 38.5266 144.681 38.4629C144.215 38.3992 143.675 38.3354 143.06 38.2717C143.293 38.1761 143.484 38.0008 143.632 37.7459C143.78 37.4591 143.907 37.1883 144.013 36.9333C144.119 36.6147 144.204 36.2642 144.268 35.8818C144.31 35.5631 144.352 35.0532 144.395 34.3522C144.437 33.6512 144.469 32.8545 144.49 31.9623C144.532 31.07 144.553 30.13 144.553 29.1421C144.575 28.1543 144.575 27.2143 144.553 26.322C144.532 25.4298 144.49 24.6172 144.426 23.8843C144.363 23.1514 144.278 22.5937 144.172 22.2113C144.088 21.9245 143.939 21.7015 143.727 21.5421C143.516 21.3509 143.272 21.2394 142.997 21.2075C142.721 21.1438 142.446 21.1597 142.171 21.2553C141.895 21.3191 141.652 21.4465 141.44 21.6377C141.249 21.8608 140.995 22.1635 140.678 22.5459C140.402 22.8964 140.042 23.3744 139.597 23.9799C139.153 24.5853 138.591 25.3501 137.913 26.2742C137.85 28.2818 137.797 29.9069 137.755 31.1497C137.733 32.3606 137.712 33.2847 137.691 33.922C137.67 34.6868 137.659 35.2126 137.659 35.4994C137.638 35.7543 137.649 35.9933 137.691 36.2164C137.733 36.6943 137.861 37.1405 138.072 37.5547C137.818 37.4591 137.543 37.3954 137.246 37.3635C136.971 37.3317 136.717 37.2998 136.484 37.2679C136.208 37.2361 135.933 37.2201 135.658 37.2201C135.425 37.2201 135.171 37.2361 134.895 37.2679C134.662 37.2998 134.376 37.3476 134.038 37.4113C133.699 37.4432 133.328 37.491 132.926 37.5547C133.095 37.3954 133.233 37.2042 133.339 36.9811C133.444 36.7581 133.529 36.5509 133.593 36.3597C133.677 36.1367 133.741 35.9296 133.783 35.7384C133.805 35.5472 133.847 35.0851 133.91 34.3522C133.974 33.5874 134.016 32.6952 134.038 31.6755C134.059 30.6558 134.059 29.5883 134.038 28.473C134.016 27.3258 133.942 26.2901 133.815 25.366C133.688 24.4101 133.487 23.6293 133.211 23.0239C132.957 22.4184 132.618 22.1476 132.195 22.2113C131.687 22.2751 131.168 22.4662 130.638 22.7849C130.193 23.0398 129.717 23.4222 129.208 23.9321C128.7 24.4419 128.224 25.127 127.779 25.9874C127.694 28.3774 127.641 30.2734 127.62 31.6755C127.62 33.0776 127.63 34.1451 127.652 34.878C127.673 35.7384 127.694 36.3279 127.715 36.6465C127.736 36.8696 127.789 37.0927 127.874 37.3157C127.938 37.5069 128.012 37.73 128.096 37.9849C128.202 38.2398 128.319 38.4788 128.446 38.7019L123.394 38.3195C123.564 38.192 123.712 38.0327 123.839 37.8415C123.966 37.6184 124.072 37.3954 124.157 37.1723C124.242 36.9174 124.326 36.6625 124.411 36.4075C124.475 36.1845 124.528 35.6587 124.57 34.8302C124.633 34.0017 124.686 33.0298 124.729 31.9145C124.771 30.7673 124.803 29.5723 124.824 28.3296C124.866 27.0549 124.888 25.8759 124.888 24.7925C124.909 23.6771 124.919 22.7371 124.919 21.9723C124.919 21.1757 124.909 20.6977 124.888 20.5384C124.824 20.2197 124.708 19.8851 124.538 19.5346C124.39 19.2797 124.189 19.0088 123.935 18.722C123.68 18.4034 123.341 18.1644 122.918 18.005Z" fill="white"/>
<path d="M159.422 32.966C160.015 32.966 160.566 32.8704 161.074 32.6792C161.498 32.5199 161.9 32.265 162.281 31.9145C162.684 31.5321 162.949 30.9744 163.076 30.2415C163.499 30.369 163.859 30.4805 164.156 30.5761C164.452 30.6398 164.706 30.7036 164.918 30.7673C165.151 30.8629 165.352 30.9266 165.522 30.9585C165.691 31.0222 165.893 31.086 166.126 31.1497C166.337 31.2134 166.592 31.2931 166.888 31.3887C167.206 31.4524 167.576 31.548 168 31.6755C167.682 31.6117 167.354 31.6595 167.015 31.8189C166.697 31.9782 166.39 32.1535 166.094 32.3447C165.755 32.5677 165.437 32.8386 165.141 33.1572C164.95 33.3484 164.728 33.6352 164.473 34.0176C164.241 34.4 163.902 34.7665 163.457 35.117C163.012 35.4675 162.419 35.7702 161.678 36.0252C160.958 36.2482 160.026 36.3279 158.882 36.2642C157.505 36.2004 156.351 35.834 155.419 35.1648C154.487 34.4637 153.735 33.6193 153.163 32.6314C152.591 31.6117 152.178 30.5124 151.924 29.3333C151.67 28.1543 151.532 27.0549 151.511 26.0352C151.49 25.0155 151.691 23.948 152.115 22.8327C152.538 21.7174 153.131 20.6977 153.894 19.7736C154.678 18.8495 155.62 18.1006 156.722 17.527C157.823 16.9216 159.03 16.6189 160.343 16.6189C161.106 16.6189 161.805 16.7623 162.44 17.0491C163.097 17.304 163.69 17.6545 164.219 18.1006C164.77 18.5468 165.247 19.0566 165.649 19.6302C166.051 20.1719 166.39 20.7296 166.666 21.3031C166.941 21.9086 167.174 22.5459 167.365 23.2151C167.534 23.7887 167.672 24.4419 167.778 25.1748C167.884 25.9078 167.915 26.6566 167.873 27.4214C166.263 27.4851 164.961 27.5329 163.965 27.5648C162.991 27.5966 162.228 27.6126 161.678 27.6126H160.248H159.168C158.787 27.6126 158.289 27.6285 157.675 27.6604C157.06 27.6922 156.309 27.74 155.419 27.8038C155.525 29.0784 155.79 30.0662 156.213 30.7673C156.658 31.4365 157.124 31.9463 157.611 32.2969C158.162 32.6792 158.765 32.9023 159.422 32.966ZM156.563 24.3623C157.24 24.426 157.802 24.4738 158.247 24.5057C158.712 24.5375 159.094 24.5694 159.39 24.6013C159.708 24.6331 159.962 24.6491 160.153 24.6491H160.947C161.476 24.6491 162.461 24.6013 163.902 24.5057C163.838 23.1036 163.637 22.0361 163.298 21.3031C162.98 20.5702 162.641 20.0285 162.281 19.678C161.858 19.2956 161.392 19.0725 160.883 19.0088C159.507 19.0407 158.479 19.4709 157.802 20.2994C157.145 21.1279 156.732 22.4822 156.563 24.3623Z" fill="white"/>
<path d="M2 5.76855C3.41907 6.02348 4.64753 6.21468 5.68536 6.34214C6.72319 6.43774 7.58099 6.5174 8.25876 6.58113C9.04242 6.64486 9.69901 6.6608 10.2285 6.62893C10.7792 6.59706 11.5311 6.5174 12.4842 6.38994C13.2891 6.29434 14.3481 6.16688 15.6612 6.00755C16.9744 5.81635 18.6159 5.56143 20.5856 5.24277C20.6068 5.97568 20.6174 6.69266 20.6174 7.39371C20.6386 8.06289 20.6598 8.65241 20.681 9.16226C20.7021 9.76771 20.7127 10.3254 20.7127 10.8352C20.7127 11.3769 20.6915 12.0621 20.6492 12.8906C20.6068 13.5916 20.5327 14.4839 20.4268 15.5673C20.3421 16.6189 20.2044 17.8776 20.0138 19.3434C19.7173 17.6226 19.4313 16.2365 19.156 15.1849C18.8806 14.1015 18.6265 13.2411 18.3935 12.6038C18.1393 11.8709 17.8852 11.3132 17.631 10.9308C17.3557 10.644 17.0274 10.405 16.6461 10.2138C16.3072 10.0545 15.873 9.92704 15.3435 9.83145C14.8352 9.73585 14.2316 9.75178 13.5326 9.87925C13.4267 14.0855 13.3526 17.4952 13.3102 20.1082C13.2679 22.7212 13.2361 24.7606 13.2149 26.2264C13.1937 27.979 13.1832 29.2377 13.1832 30.0025C13.2043 31.086 13.3208 32.1535 13.5326 33.205C13.7021 34.0973 13.9774 35.0214 14.3587 35.9774C14.7399 36.9333 15.2906 37.7778 16.0107 38.5107H12.1347C11.7747 38.5107 11.3299 38.5426 10.8004 38.6063C10.3556 38.67 9.78373 38.7338 9.08478 38.7975C8.40702 38.8612 7.61276 38.9727 6.70201 39.1321C7.01971 38.3036 7.27388 37.5547 7.4645 36.8855C7.65512 36.2164 7.80338 35.6428 7.90928 35.1648C8.03636 34.5912 8.13167 34.0813 8.19522 33.6352C8.2164 32.9979 8.26935 31.7073 8.35407 29.7635C8.37525 28.9669 8.39643 27.979 8.41761 26.8C8.45997 25.621 8.50233 24.2189 8.54469 22.5937C8.60823 20.9686 8.66118 19.1044 8.70354 17.0013C8.76708 14.8662 8.83062 12.4604 8.89416 9.78365C8.51292 9.62432 8.15285 9.64025 7.81397 9.83145C7.47509 9.99078 7.17856 10.1979 6.9244 10.4528C6.62788 10.7715 6.34195 11.1539 6.0666 11.6C5.79126 12.1417 5.48415 12.8428 5.14526 13.7031C4.84874 14.4361 4.50986 15.408 4.12861 16.6189C3.74737 17.7979 3.31317 19.2637 2.82603 21.0164C2.72013 19.1681 2.646 17.6545 2.60364 16.4755C2.56128 15.2646 2.52951 14.3245 2.50833 13.6553C2.48715 12.8587 2.47656 12.2692 2.47656 11.8868C2.47656 11.5363 2.45537 11.0742 2.41301 10.5006C2.37065 10.0226 2.3177 9.40126 2.25416 8.63648C2.19062 7.83983 2.1059 6.88386 2 5.76855Z" stroke="black" stroke-width="2" mask="url(#path-1-outside-1_0_55)"/>
<path d="M19.2831 17.766C19.6855 17.7979 20.0455 17.8138 20.3633 17.8138C20.7021 17.782 20.9881 17.7501 21.2211 17.7182C21.4964 17.6864 21.74 17.6545 21.9518 17.6226C22.2695 17.5589 22.5978 17.4792 22.9366 17.3836C23.2332 17.3199 23.5403 17.2403 23.858 17.1447C24.1969 17.0172 24.5252 16.8738 24.8429 16.7145C24.7158 17.1925 24.6099 17.6067 24.5252 17.9572C24.4404 18.3078 24.3769 18.6105 24.3345 18.8654C24.271 19.1522 24.2392 19.3912 24.2392 19.5824C24.2181 19.8055 24.2075 20.0763 24.2075 20.395C24.1863 20.9367 24.1863 21.813 24.2075 23.0239C25.3088 21.5899 26.2302 20.4746 26.9715 19.678C27.734 18.8813 28.3376 18.26 28.7824 17.8138C29.3119 17.304 29.7249 16.9694 30.0214 16.8101C30.8051 16.6189 31.4935 16.8897 32.0865 17.6226C32.3407 17.9413 32.5842 18.3715 32.8172 18.9132C33.0502 19.4231 33.2514 20.1082 33.4209 20.9686C33.5903 21.8289 33.7174 22.8646 33.8021 24.0755C33.8868 25.2545 33.8974 26.6725 33.8339 28.3296C33.3891 28.3933 32.9867 28.457 32.6266 28.5208C32.2877 28.5845 32.0018 28.6323 31.7688 28.6642C31.4935 28.7279 31.2393 28.7597 31.0063 28.7597L30.1485 28.9031C29.852 28.9669 29.4813 29.0306 29.0366 29.0943C28.6129 29.1262 28.094 29.1899 27.4798 29.2855C28.3694 28.2021 28.9412 27.2621 29.1954 26.4654C29.4707 25.6369 29.5872 24.9518 29.5449 24.4101C29.5025 23.8046 29.3119 23.2788 28.973 22.8327C28.5706 22.4822 28.1364 22.3547 27.6704 22.4503C27.268 22.514 26.802 22.7849 26.2725 23.2629C25.743 23.7409 25.1818 24.6331 24.5887 25.9396C24.6311 27.979 24.6734 29.6679 24.7158 31.0063C24.7793 32.3447 24.8323 33.4281 24.8746 34.2566C24.9382 35.2126 24.9911 35.9614 25.0335 36.5031C25.097 36.9811 25.2241 37.491 25.4147 38.0327C25.563 38.4788 25.7748 38.9727 26.0501 39.5145C26.3255 40.0562 26.6855 40.5979 27.1303 41.1396C26.1984 41.0759 25.4359 41.0759 24.8429 41.1396C24.4828 41.1715 24.1651 41.2034 23.8898 41.2352C23.5932 41.299 23.2755 41.3627 22.9366 41.4264C22.6401 41.4901 22.2907 41.5539 21.8882 41.6176C21.507 41.7132 21.0834 41.8088 20.6174 41.9044C20.7869 41.5539 20.9245 41.1396 21.0304 40.6616C21.1363 40.2155 21.2211 39.7853 21.2846 39.3711C21.3693 38.8931 21.4329 38.3992 21.4752 37.8893C21.4964 37.4432 21.507 36.774 21.507 35.8818C21.5282 34.9895 21.5176 33.9857 21.4752 32.8704C21.454 31.7233 21.4223 30.5442 21.3799 29.3333C21.3375 28.0906 21.2846 26.9275 21.2211 25.844C21.1575 24.7606 21.0834 23.8205 20.9987 23.0239C20.9351 22.1954 20.861 21.6218 20.7763 21.3031C20.6704 20.9208 20.5433 20.5384 20.395 20.156C20.2679 19.8055 20.1091 19.439 19.9185 19.0566C19.7278 18.6423 19.516 18.2122 19.2831 17.766Z" stroke="black" stroke-width="2" mask="url(#path-1-outside-1_0_55)"/>
<path d="M37.551 21.3031C37.6569 21.1119 37.7204 20.7614 37.7416 20.2516C37.784 19.7099 37.8687 19.1044 37.9958 18.4352C38.144 17.766 38.3876 17.065 38.7265 16.3321C39.0654 15.5992 39.6161 14.914 40.3786 14.2767C41.1199 13.6394 41.84 13.257 42.5389 13.1296C43.2379 13.0021 43.9051 13.0499 44.5405 13.273C45.1759 13.496 45.7689 13.8465 46.3196 14.3245C46.8915 14.8025 47.4104 15.3283 47.8764 15.9019C48.1941 16.2843 48.4482 16.8419 48.6388 17.5748C48.8295 18.2759 48.9777 19.0725 49.0836 19.9648C49.1895 20.857 49.2637 21.7971 49.306 22.7849C49.3696 23.7409 49.4119 24.6809 49.4331 25.605C49.4543 26.4973 49.4649 27.3258 49.4649 28.0906C49.4861 28.8235 49.5284 29.4289 49.592 29.9069C49.6767 30.608 49.8249 31.2134 50.0367 31.7233C50.2485 32.2013 50.4815 32.6155 50.7357 32.966C50.9899 33.2847 51.244 33.5396 51.4982 33.7308C51.7523 33.922 51.9747 34.0654 52.1654 34.161C52.2924 34.2566 52.4089 34.3203 52.5148 34.3522C52.7266 34.4797 52.8749 34.4797 52.9596 34.3522C52.8325 34.7983 52.716 35.1807 52.6101 35.4994C52.5042 35.818 52.4195 36.0889 52.356 36.3119C52.2713 36.5669 52.1971 36.774 52.1336 36.9333C52.07 37.1245 51.9959 37.2998 51.9112 37.4591C51.8477 37.6184 51.7629 37.7937 51.657 37.9849C51.5511 38.1761 51.4452 38.3832 51.3393 38.6063C51.064 38.447 50.7992 38.2558 50.5451 38.0327C50.3121 37.8096 50.1003 37.6025 49.9097 37.4113C49.6767 37.1883 49.4649 36.9652 49.2743 36.7421C49.0836 36.5191 48.9036 36.2642 48.7342 35.9774C48.5859 35.7224 48.427 35.4516 48.2576 35.1648C48.1093 34.878 47.9823 34.5593 47.8764 34.2088C47.7493 34.6231 47.4422 35.2126 46.955 35.9774C46.4891 36.7421 45.8748 37.4432 45.1123 38.0805C44.3499 38.686 43.4603 39.1161 42.4436 39.3711C41.4482 39.626 40.3468 39.4507 39.1395 38.8453C38.61 38.5904 38.1123 38.2239 37.6463 37.7459C37.1803 37.2361 36.7779 36.6306 36.439 35.9296C36.1213 35.2285 35.8884 34.4319 35.7401 33.5396C35.613 32.6155 35.6236 31.5958 35.7719 30.4805C35.9201 29.3652 36.1849 28.4252 36.5661 27.6604C36.9474 26.8956 37.4027 26.2742 37.9322 25.7962C38.4618 25.3182 39.0548 24.9518 39.7114 24.6969C40.368 24.4419 41.0457 24.2667 41.7447 24.1711C42.2954 24.1392 42.8461 24.187 43.3967 24.3145C43.8627 24.4419 44.3499 24.6809 44.8582 25.0314C45.3665 25.3501 45.8007 25.844 46.1608 26.5132C46.1396 24.8243 46.0972 23.486 46.0337 22.4981C45.9913 21.4784 45.949 20.6977 45.9066 20.156C45.8219 19.5187 45.7477 19.0725 45.6842 18.8176C45.5783 18.5945 45.4618 18.3396 45.3347 18.0528C45.2288 17.766 45.0912 17.5111 44.9217 17.2881C44.7523 17.0331 44.5405 16.826 44.2863 16.6667C44.0322 16.5073 43.7356 16.4436 43.3967 16.4755C43.0367 16.5073 42.7507 16.6507 42.5389 16.9057C42.3271 17.1606 42.1577 17.4633 42.0306 17.8138C41.9247 18.1325 41.8612 18.483 41.84 18.8654C41.8188 19.2478 41.8294 19.5824 41.8718 19.8692C41.9141 20.0604 41.9777 20.2675 42.0624 20.4906C42.1471 20.6818 42.2636 20.8889 42.4119 21.1119C42.5601 21.335 42.7613 21.5262 43.0155 21.6855C42.5284 21.7811 42.0942 21.8608 41.7129 21.9245C41.3317 21.9564 41.0034 22.0042 40.728 22.0679C40.4103 22.1317 40.135 22.1795 39.902 22.2113C39.669 22.2432 39.3937 22.3069 39.076 22.4025C38.8006 22.4662 38.4618 22.5459 38.0593 22.6415C37.6569 22.7371 37.1909 22.8646 36.6614 23.0239C36.7885 22.8008 36.905 22.5937 37.0109 22.4025C37.1168 22.1795 37.2121 21.9883 37.2968 21.8289C37.3816 21.6377 37.4663 21.4625 37.551 21.3031ZM42.3166 26.9912C41.9353 27.0231 41.5541 27.1665 41.1728 27.4214C40.7916 27.6444 40.4527 27.979 40.1562 28.4252C39.8596 28.8394 39.6055 29.3333 39.3937 29.9069C39.2031 30.4486 39.1077 31.0541 39.1077 31.7233C39.1077 32.3925 39.2137 32.982 39.4255 33.4918C39.6584 33.9698 39.955 34.3681 40.315 34.6868C40.6963 35.0055 41.0987 35.1966 41.5223 35.2604C41.9671 35.3241 42.4013 35.2604 42.8249 35.0692C43.2273 34.8461 43.6085 34.4956 43.9686 34.0176C44.3287 33.5078 44.6358 32.966 44.89 32.3925C45.1441 31.787 45.3241 31.1975 45.43 30.6239C45.5359 30.0184 45.5465 29.5245 45.4618 29.1421C45.2924 28.3136 44.9111 27.74 44.3181 27.4214C43.725 27.0709 43.0579 26.9275 42.3166 26.9912Z" stroke="black" stroke-width="2" mask="url(#path-1-outside-1_0_55)"/>
<path d="M50.5451 14.3245C50.9051 14.4201 51.2758 14.4998 51.657 14.5635C52.0171 14.5954 52.3454 14.6273 52.6419 14.6591C52.9808 14.691 53.3091 14.7069 53.6268 14.7069C53.9445 14.7069 54.3046 14.691 54.707 14.6591C55.0459 14.6273 55.4483 14.5795 55.9143 14.5157C56.4014 14.452 56.9309 14.3564 57.5028 14.2289C57.1639 14.5157 56.8991 14.8184 56.7085 15.1371C56.5179 15.4558 56.3696 15.7426 56.2637 15.9975C56.1366 16.3161 56.0519 16.6029 56.0096 16.8579C55.9672 17.1128 55.9778 17.6386 56.0413 18.4352C56.1049 19.2319 56.1896 20.156 56.2955 21.2075C56.4226 22.2591 56.5603 23.3585 56.7085 24.5057C56.8568 25.6528 57.005 26.7044 57.1533 27.6604C57.3227 28.6164 57.471 29.413 57.5981 30.0503C57.7463 30.6876 57.8628 30.9904 57.9476 30.9585C58.0323 30.9585 58.1594 30.6398 58.3288 30.0025C58.5194 29.3652 58.7312 28.5845 58.9642 27.6604C59.1972 26.7044 59.4408 25.6688 59.6949 24.5535C59.9491 23.4063 60.1715 22.3388 60.3621 21.3509C60.5527 20.3631 60.701 19.5346 60.8069 18.8654C60.934 18.1644 60.9869 17.7501 60.9657 17.6226C60.9022 17.4952 60.8281 17.3199 60.7433 17.0969C60.5951 16.7463 60.2668 16.1409 59.7585 15.2805C60.3727 15.3442 60.9022 15.408 61.347 15.4717C61.7918 15.5036 62.1518 15.5514 62.4272 15.6151C62.7449 15.6788 62.999 15.7266 63.1897 15.7585C63.3803 15.7904 63.6556 15.7904 64.0157 15.7585C64.3122 15.7585 64.704 15.7426 65.1912 15.7107C65.6995 15.647 66.3243 15.5514 67.0656 15.4239C66.515 15.9019 66.0596 16.3321 65.6995 16.7145C65.3606 17.065 65.0959 17.3677 64.9053 17.6226C64.6723 17.9413 64.5028 18.2122 64.3969 18.4352C64.2487 18.8495 63.9839 19.8373 63.6027 21.3987C63.4332 22.0679 63.2214 22.8964 62.9673 23.8843C62.7343 24.8721 62.4484 26.0671 62.1095 27.4692C61.7918 28.8394 61.4105 30.4486 60.9657 32.2969C60.521 34.1451 60.0232 36.2642 59.4725 38.6541L56.3908 39.1321C55.9884 37.1245 55.6601 35.4516 55.4059 34.1132C55.1729 32.743 54.9823 31.6436 54.8341 30.8151C54.6646 29.8591 54.5375 29.1103 54.4528 28.5686C54.3469 27.9631 54.2198 27.0868 54.0716 25.9396C53.9233 24.7606 53.7751 23.5656 53.6268 22.3547C53.4785 21.1438 53.3303 20.0604 53.182 19.1044C53.0337 18.1166 52.9173 17.5111 52.8325 17.2881C52.7478 17.1287 52.5996 16.9057 52.3877 16.6189C52.2183 16.3639 51.9853 16.0612 51.6888 15.7107C51.3923 15.3283 51.011 14.8662 50.5451 14.3245Z" stroke="black" stroke-width="2" mask="url(#path-1-outside-1_0_55)"/>
<path d="M73.7056 32.966C74.2987 32.966 74.8494 32.8704 75.3577 32.6792C75.7813 32.5199 76.1837 32.265 76.565 31.9145C76.9674 31.5321 77.2322 30.9744 77.3592 30.2415C77.7828 30.369 78.1429 30.4805 78.4394 30.5761C78.7359 30.6398 78.9901 30.7036 79.2019 30.7673C79.4349 30.8629 79.6361 30.9266 79.8055 30.9585C79.975 31.0222 80.1762 31.086 80.4092 31.1497C80.621 31.2134 80.8751 31.2931 81.1717 31.3887C81.4894 31.4524 81.86 31.548 82.2836 31.6755C81.9659 31.6117 81.6376 31.6595 81.2988 31.8189C80.981 31.9782 80.6739 32.1535 80.3774 32.3447C80.0385 32.5677 79.7208 32.8386 79.4243 33.1572C79.2337 33.3484 79.0113 33.6352 78.7571 34.0176C78.5241 34.4 78.1853 34.7665 77.7405 35.117C77.2957 35.4675 76.7026 35.7702 75.9613 36.0252C75.2412 36.2482 74.3093 36.3279 73.1655 36.2642C71.7888 36.2004 70.6345 35.834 69.7026 35.1648C68.7707 34.4637 68.0188 33.6193 67.4469 32.6314C66.875 31.6117 66.462 30.5124 66.2078 29.3333C65.9537 28.1543 65.816 27.0549 65.7948 26.0352C65.7736 25.0155 65.9749 23.948 66.3985 22.8327C66.8221 21.7174 67.4151 20.6977 68.1776 19.7736C68.9613 18.8495 69.9038 18.1006 71.0052 17.527C72.1065 16.9216 73.3138 16.6189 74.627 16.6189C75.3895 16.6189 76.0884 16.7623 76.7238 17.0491C77.3804 17.304 77.9735 17.6545 78.503 18.1006C79.0536 18.5468 79.5302 19.0566 79.9326 19.6302C80.3351 20.1719 80.6739 20.7296 80.9493 21.3031C81.2246 21.9086 81.4576 22.5459 81.6482 23.2151C81.8177 23.7887 81.9553 24.4419 82.0612 25.1748C82.1671 25.9078 82.1989 26.6566 82.1566 27.4214C80.5469 27.4851 79.2443 27.5329 78.2488 27.5648C77.2745 27.5966 76.512 27.6126 75.9613 27.6126H74.5317H73.4515C73.0702 27.6126 72.5725 27.6285 71.9583 27.6604C71.344 27.6922 70.5922 27.74 69.7026 27.8038C69.8085 29.0784 70.0732 30.0662 70.4968 30.7673C70.9416 31.4365 71.4076 31.9463 71.8947 32.2969C72.4454 32.6792 73.0491 32.9023 73.7056 32.966ZM70.8463 24.3623C71.5241 24.426 72.0854 24.4738 72.5301 24.5057C72.9961 24.5375 73.3773 24.5694 73.6739 24.6013C73.9916 24.6331 74.2457 24.6491 74.4364 24.6491H75.2306C75.7601 24.6491 76.745 24.6013 78.1853 24.5057C78.1217 23.1036 77.9205 22.0361 77.5816 21.3031C77.2639 20.5702 76.925 20.0285 76.565 19.678C76.1414 19.2956 75.6754 19.0725 75.1671 19.0088C73.7904 19.0407 72.7631 19.4709 72.0854 20.2994C71.4288 21.1279 71.0158 22.4822 70.8463 24.3623Z" stroke="black" stroke-width="2" mask="url(#path-1-outside-1_0_55)"/>
<path d="M84.1581 42C84.3699 41.522 84.5393 41.0759 84.6664 40.6616C84.7935 40.2474 84.8994 39.8969 84.9841 39.6101C85.0688 39.2595 85.1324 38.9409 85.1747 38.6541C85.1959 38.4629 85.2065 37.9052 85.2065 36.9811C85.2065 36.057 85.1853 34.8939 85.143 33.4918C85.1218 32.0897 85.09 30.5124 85.0477 28.7597C85.0265 27.0071 84.9841 25.2226 84.9206 23.4063C84.8782 21.5899 84.8253 19.8214 84.7617 18.1006C84.7194 16.3799 84.677 14.8344 84.6346 13.4642C84.5923 12.0621 84.5499 10.9149 84.5076 10.0226C84.4652 9.1304 84.4334 8.62055 84.4122 8.49308C84.3699 8.30189 84.2958 8.11069 84.1899 7.9195C83.9781 7.53711 83.618 7.17065 83.1097 6.82013C84.1899 6.40587 85.0159 6.07128 85.5877 5.81635C85.9266 5.68889 86.2232 5.56143 86.4773 5.43396C86.7103 5.3065 86.9433 5.17904 87.1763 5.05157C87.3669 4.92411 87.5787 4.78071 87.8117 4.62138C88.0447 4.43019 88.2565 4.22306 88.4471 4C88.3412 4.92411 88.2565 5.81635 88.1929 6.67673C88.1294 7.53711 88.0764 8.33375 88.0341 9.06667C87.9917 9.89518 87.9705 10.6918 87.9705 11.4566C87.8646 13.018 87.8011 14.7229 87.7799 16.5711C87.7799 18.3874 87.7905 20.2356 87.8117 22.1157C87.8329 23.9958 87.8752 25.8281 87.9388 27.6126C88.0023 29.3971 88.0658 31.0222 88.1294 32.488C88.2141 33.922 88.2882 35.1488 88.3518 36.1686C88.4365 37.1564 88.5 37.7937 88.5424 38.0805C88.6271 38.5585 88.7118 39.0205 88.7966 39.4667C88.8813 39.8491 88.9766 40.2474 89.0825 40.6616C89.1884 41.1078 89.3155 41.4583 89.4637 41.7132H86.382C86.1067 41.7132 85.8419 41.7291 85.5877 41.761C85.3548 41.7929 85.1112 41.8247 84.857 41.8566C84.6029 41.8885 84.3699 41.9363 84.1581 42Z" stroke="black" stroke-width="2" mask="url(#path-1-outside-1_0_55)"/>
<path d="M104.618 13.3686C104.428 14.0696 104.258 14.7069 104.11 15.2805C103.983 15.8541 103.866 16.3639 103.76 16.8101C103.654 17.3199 103.559 17.766 103.474 18.1484C103.39 18.5945 103.294 19.1044 103.189 19.678C103.083 20.1878 102.945 20.8252 102.775 21.5899C102.627 22.3229 102.447 23.1992 102.235 24.2189C102.066 22.6893 101.759 21.4784 101.314 20.5862C100.869 19.6621 100.414 18.9451 99.9479 18.4352C99.3973 17.8616 98.8042 17.4474 98.1688 17.1925C97.0251 16.9057 96.199 16.9375 95.6907 17.2881C95.1824 17.6386 94.8435 18.0847 94.6741 18.6264C94.5893 18.8495 94.494 19.1363 94.3881 19.4868C94.3034 19.8055 94.2293 20.14 94.1657 20.4906C94.1234 20.8411 94.1128 21.1916 94.134 21.5421C94.1551 21.8927 94.2505 22.1795 94.4199 22.4025C94.5258 22.5618 94.8011 22.7849 95.2459 23.0717C95.6907 23.3266 96.2202 23.6293 96.8344 23.9799C97.4699 24.2985 98.137 24.6491 98.836 25.0314C99.5561 25.4138 100.234 25.7962 100.869 26.1786C101.505 26.561 102.055 26.9434 102.521 27.3258C102.987 27.7082 103.294 28.0587 103.443 28.3774C103.57 28.696 103.707 29.1262 103.856 29.6679C104.025 30.1778 104.142 30.7514 104.205 31.3887C104.29 31.9941 104.311 32.6314 104.269 33.3006C104.248 33.9379 104.131 34.5753 103.919 35.2126C103.707 35.8499 103.369 36.4394 102.903 36.9811C102.458 37.5229 101.854 37.969 101.092 38.3195C100.202 38.7338 99.3443 38.8453 98.5183 38.6541C97.6922 38.4629 96.9298 38.1761 96.2308 37.7937C95.553 37.4113 94.96 37.0449 94.4517 36.6943C93.9433 36.3119 93.5833 36.1526 93.3715 36.2164C93.1385 36.2801 92.8737 36.4553 92.5772 36.7421C92.2807 37.0289 91.9948 37.3317 91.7194 37.6503C91.4653 37.9371 91.2429 38.208 91.0522 38.4629C90.8616 38.686 90.7663 38.7656 90.7663 38.7019C90.7663 38.6382 90.7981 38.447 90.8616 38.1283C90.9463 37.8096 91.0311 37.4273 91.1158 36.9811C91.2217 36.5031 91.317 35.9933 91.4017 35.4516C91.5076 34.878 91.5818 34.3363 91.6241 33.8264C91.6665 33.4122 91.7194 32.9023 91.783 32.2969C91.8253 31.7551 91.8783 31.1019 91.9418 30.3371C92.0265 29.5405 92.1218 28.5845 92.2277 27.4692C92.3336 28.2977 92.4819 29.0147 92.6725 29.6201C92.8843 30.2256 93.0855 30.7514 93.2762 31.1975C93.5092 31.7073 93.7315 32.1375 93.9433 32.488C94.261 32.9342 94.6317 33.3484 95.0553 33.7308C95.5001 34.1132 95.9449 34.4478 96.3897 34.7346C96.8344 34.9895 97.2581 35.1488 97.6605 35.2126C98.0629 35.2763 98.4018 35.2126 98.6771 35.0214C98.9525 34.8302 99.1855 34.4797 99.3761 33.9698C99.5879 33.46 99.7361 32.9023 99.8209 32.2969C99.9056 31.6914 99.9373 31.1178 99.9162 30.5761C99.895 30.0025 99.7997 29.5405 99.6302 29.1899C99.5032 28.9669 99.2066 28.6801 98.7407 28.3296C98.2959 27.979 97.7558 27.5966 97.1204 27.1824C96.5062 26.7681 95.8496 26.3379 95.1506 25.8918C94.4729 25.4457 93.8269 24.9996 93.2126 24.5535C92.6196 24.0755 92.1218 23.6293 91.7194 23.2151C91.3382 22.769 91.1264 22.3706 91.084 22.0201C91.0417 21.5103 91.0099 20.9526 90.9887 20.3472C90.9675 19.7099 90.9887 19.0885 91.0522 18.483C91.137 17.8457 91.2852 17.2403 91.497 16.6667C91.73 16.0931 92.0689 15.6151 92.5137 15.2327C92.8102 14.9778 93.202 14.7866 93.6892 14.6591C94.1763 14.5317 94.7164 14.4679 95.3095 14.4679C95.9025 14.4361 96.5167 14.4679 97.1521 14.5635C97.7876 14.6273 98.3912 14.7229 98.9631 14.8503C99.5561 14.9459 100.086 15.0734 100.552 15.2327C101.039 15.392 101.409 15.5354 101.664 15.6629C101.96 15.8222 102.278 15.8382 102.617 15.7107C102.913 15.6151 103.231 15.408 103.57 15.0893C103.909 14.7706 104.258 14.1971 104.618 13.3686Z" stroke="black" stroke-width="2" mask="url(#path-1-outside-1_0_55)"/>
<path d="M114.276 19.2478C114.827 19.2478 115.399 19.4071 115.992 19.7258C116.585 20.0126 117.157 20.395 117.708 20.873C118.258 21.3191 118.756 21.813 119.201 22.3547C119.667 22.8646 120.048 23.3585 120.344 23.8365C120.874 24.6969 121.234 25.86 121.425 27.3258C121.636 28.7597 121.679 30.2415 121.552 31.7711C121.425 33.2688 121.128 34.6868 120.662 36.0252C120.196 37.3635 119.55 38.3514 118.724 38.9887C118.131 39.4348 117.549 39.7853 116.977 40.0403C116.405 40.2952 115.854 40.4864 115.325 40.6138C114.795 40.7413 114.298 40.805 113.832 40.805C113.366 40.805 112.963 40.7891 112.624 40.7572C111.989 40.6935 111.322 40.3589 110.623 39.7535C109.945 39.148 109.299 38.3992 108.685 37.5069C108.092 36.6147 107.583 35.6428 107.16 34.5912C106.736 33.5078 106.482 32.488 106.397 31.5321C106.27 30.2256 106.249 28.8553 106.334 27.4214C106.418 25.9874 106.726 24.665 107.255 23.4541C107.806 22.2432 108.632 21.2394 109.733 20.4428C110.856 19.6461 112.37 19.2478 114.276 19.2478ZM113.228 37.7937C113.461 37.8574 113.779 37.7778 114.181 37.5547C114.583 37.2998 114.975 36.9015 115.357 36.3597C115.759 35.818 116.108 35.1329 116.405 34.3044C116.723 33.444 116.913 32.4084 116.977 31.1975C117.04 30.0184 117.04 28.935 116.977 27.9472C116.934 26.9593 116.839 26.099 116.691 25.366C116.543 24.6013 116.373 23.9799 116.183 23.5019C115.992 23.0239 115.791 22.6893 115.579 22.4981C115.219 22.2113 114.785 21.9883 114.276 21.8289C113.768 21.6377 113.334 21.6696 112.974 21.9245C112.804 22.052 112.593 22.3229 112.338 22.7371C112.084 23.1514 111.83 23.6771 111.576 24.3145C111.322 24.9199 111.089 25.621 110.877 26.4176C110.686 27.2143 110.549 28.0428 110.464 28.9031C110.379 29.7635 110.358 30.6876 110.4 31.6755C110.464 32.6633 110.602 33.6034 110.813 34.4956C111.025 35.356 111.322 36.1048 111.703 36.7421C112.105 37.3476 112.614 37.6981 113.228 37.7937Z" stroke="black" stroke-width="2" mask="url(#path-1-outside-1_0_55)"/>
<path d="M122.918 18.005C123.405 17.9413 123.818 17.8776 124.157 17.8138C124.517 17.7501 124.814 17.6864 125.047 17.6226C125.322 17.5589 125.555 17.4952 125.745 17.4314C125.936 17.3996 126.148 17.3358 126.381 17.2403C126.593 17.1765 126.826 17.0969 127.08 17.0013C127.355 16.8738 127.652 16.7304 127.969 16.5711L127.779 22.6415C128.245 21.5262 128.785 20.6818 129.399 20.1082C130.013 19.5027 130.596 19.0566 131.146 18.7698C131.803 18.4193 132.46 18.2122 133.116 18.1484C133.794 18.1803 134.419 18.3396 134.991 18.6264C135.478 18.8813 135.965 19.2797 136.452 19.8214C136.96 20.3631 137.352 21.1597 137.628 22.2113C138.348 21.096 139.057 20.2356 139.756 19.6302C140.476 18.9929 141.112 18.5149 141.662 18.1962C142.319 17.8457 142.933 17.6386 143.505 17.5748C144.268 17.543 144.967 17.7342 145.602 18.1484C146.258 18.5627 146.83 19.0885 147.318 19.7258C147.805 20.3312 148.196 20.9845 148.493 21.6855C148.79 22.3547 148.959 22.9442 149.001 23.4541C149.065 24.1551 149.033 25.0633 148.906 26.1786C148.779 27.2621 148.631 28.3774 148.461 29.5245C148.292 30.6398 148.133 31.6755 147.985 32.6314C147.858 33.5556 147.805 34.2088 147.826 34.5912C147.889 34.9099 148.038 35.2922 148.271 35.7384C148.482 36.1208 148.79 36.5987 149.192 37.1723C149.616 37.714 150.219 38.3514 151.003 39.0843C150.325 39.0524 149.721 39.0205 149.192 38.9887C148.684 38.9568 148.249 38.909 147.889 38.8453C147.466 38.7816 147.095 38.7338 146.777 38.7019C146.523 38.7019 146.216 38.67 145.856 38.6063C145.56 38.5744 145.168 38.5266 144.681 38.4629C144.215 38.3992 143.675 38.3354 143.06 38.2717C143.293 38.1761 143.484 38.0008 143.632 37.7459C143.78 37.4591 143.907 37.1883 144.013 36.9333C144.119 36.6147 144.204 36.2642 144.268 35.8818C144.31 35.5631 144.352 35.0532 144.395 34.3522C144.437 33.6512 144.469 32.8545 144.49 31.9623C144.532 31.07 144.553 30.13 144.553 29.1421C144.575 28.1543 144.575 27.2143 144.553 26.322C144.532 25.4298 144.49 24.6172 144.426 23.8843C144.363 23.1514 144.278 22.5937 144.172 22.2113C144.088 21.9245 143.939 21.7015 143.727 21.5421C143.516 21.3509 143.272 21.2394 142.997 21.2075C142.721 21.1438 142.446 21.1597 142.171 21.2553C141.895 21.3191 141.652 21.4465 141.44 21.6377C141.249 21.8608 140.995 22.1635 140.678 22.5459C140.402 22.8964 140.042 23.3744 139.597 23.9799C139.153 24.5853 138.591 25.3501 137.913 26.2742C137.85 28.2818 137.797 29.9069 137.755 31.1497C137.733 32.3606 137.712 33.2847 137.691 33.922C137.67 34.6868 137.659 35.2126 137.659 35.4994C137.638 35.7543 137.649 35.9933 137.691 36.2164C137.733 36.6943 137.861 37.1405 138.072 37.5547C137.818 37.4591 137.543 37.3954 137.246 37.3635C136.971 37.3317 136.717 37.2998 136.484 37.2679C136.208 37.2361 135.933 37.2201 135.658 37.2201C135.425 37.2201 135.171 37.2361 134.895 37.2679C134.662 37.2998 134.376 37.3476 134.038 37.4113C133.699 37.4432 133.328 37.491 132.926 37.5547C133.095 37.3954 133.233 37.2042 133.339 36.9811C133.444 36.7581 133.529 36.5509 133.593 36.3597C133.677 36.1367 133.741 35.9296 133.783 35.7384C133.805 35.5472 133.847 35.0851 133.91 34.3522C133.974 33.5874 134.016 32.6952 134.038 31.6755C134.059 30.6558 134.059 29.5883 134.038 28.473C134.016 27.3258 133.942 26.2901 133.815 25.366C133.688 24.4101 133.487 23.6293 133.211 23.0239C132.957 22.4184 132.618 22.1476 132.195 22.2113C131.687 22.2751 131.168 22.4662 130.638 22.7849C130.193 23.0398 129.717 23.4222 129.208 23.9321C128.7 24.4419 128.224 25.127 127.779 25.9874C127.694 28.3774 127.641 30.2734 127.62 31.6755C127.62 33.0776 127.63 34.1451 127.652 34.878C127.673 35.7384 127.694 36.3279 127.715 36.6465C127.736 36.8696 127.789 37.0927 127.874 37.3157C127.938 37.5069 128.012 37.73 128.096 37.9849C128.202 38.2398 128.319 38.4788 128.446 38.7019L123.394 38.3195C123.564 38.192 123.712 38.0327 123.839 37.8415C123.966 37.6184 124.072 37.3954 124.157 37.1723C124.242 36.9174 124.326 36.6625 124.411 36.4075C124.475 36.1845 124.528 35.6587 124.57 34.8302C124.633 34.0017 124.686 33.0298 124.729 31.9145C124.771 30.7673 124.803 29.5723 124.824 28.3296C124.866 27.0549 124.888 25.8759 124.888 24.7925C124.909 23.6771 124.919 22.7371 124.919 21.9723C124.919 21.1757 124.909 20.6977 124.888 20.5384C124.824 20.2197 124.708 19.8851 124.538 19.5346C124.39 19.2797 124.189 19.0088 123.935 18.722C123.68 18.4034 123.341 18.1644 122.918 18.005Z" stroke="black" stroke-width="2" mask="url(#path-1-outside-1_0_55)"/>
<path d="M159.422 32.966C160.015 32.966 160.566 32.8704 161.074 32.6792C161.498 32.5199 161.9 32.265 162.281 31.9145C162.684 31.5321 162.949 30.9744 163.076 30.2415C163.499 30.369 163.859 30.4805 164.156 30.5761C164.452 30.6398 164.706 30.7036 164.918 30.7673C165.151 30.8629 165.352 30.9266 165.522 30.9585C165.691 31.0222 165.893 31.086 166.126 31.1497C166.337 31.2134 166.592 31.2931 166.888 31.3887C167.206 31.4524 167.576 31.548 168 31.6755C167.682 31.6117 167.354 31.6595 167.015 31.8189C166.697 31.9782 166.39 32.1535 166.094 32.3447C165.755 32.5677 165.437 32.8386 165.141 33.1572C164.95 33.3484 164.728 33.6352 164.473 34.0176C164.241 34.4 163.902 34.7665 163.457 35.117C163.012 35.4675 162.419 35.7702 161.678 36.0252C160.958 36.2482 160.026 36.3279 158.882 36.2642C157.505 36.2004 156.351 35.834 155.419 35.1648C154.487 34.4637 153.735 33.6193 153.163 32.6314C152.591 31.6117 152.178 30.5124 151.924 29.3333C151.67 28.1543 151.532 27.0549 151.511 26.0352C151.49 25.0155 151.691 23.948 152.115 22.8327C152.538 21.7174 153.131 20.6977 153.894 19.7736C154.678 18.8495 155.62 18.1006 156.722 17.527C157.823 16.9216 159.03 16.6189 160.343 16.6189C161.106 16.6189 161.805 16.7623 162.44 17.0491C163.097 17.304 163.69 17.6545 164.219 18.1006C164.77 18.5468 165.247 19.0566 165.649 19.6302C166.051 20.1719 166.39 20.7296 166.666 21.3031C166.941 21.9086 167.174 22.5459 167.365 23.2151C167.534 23.7887 167.672 24.4419 167.778 25.1748C167.884 25.9078 167.915 26.6566 167.873 27.4214C166.263 27.4851 164.961 27.5329 163.965 27.5648C162.991 27.5966 162.228 27.6126 161.678 27.6126H160.248H159.168C158.787 27.6126 158.289 27.6285 157.675 27.6604C157.06 27.6922 156.309 27.74 155.419 27.8038C155.525 29.0784 155.79 30.0662 156.213 30.7673C156.658 31.4365 157.124 31.9463 157.611 32.2969C158.162 32.6792 158.765 32.9023 159.422 32.966ZM156.563 24.3623C157.24 24.426 157.802 24.4738 158.247 24.5057C158.712 24.5375 159.094 24.5694 159.39 24.6013C159.708 24.6331 159.962 24.6491 160.153 24.6491H160.947C161.476 24.6491 162.461 24.6013 163.902 24.5057C163.838 23.1036 163.637 22.0361 163.298 21.3031C162.98 20.5702 162.641 20.0285 162.281 19.678C161.858 19.2956 161.392 19.0725 160.883 19.0088C159.507 19.0407 158.479 19.4709 157.802 20.2994C157.145 21.1279 156.732 22.4822 156.563 24.3623Z" stroke="black" stroke-width="2" mask="url(#path-1-outside-1_0_55)"/>
</svg>
